# Blender 5.1.1
# www.blender.org
mtllib f-15s.mtl
o Cube
v 0.255392 0.043156 0.128894
v 0.255392 0.090343 0.128894
v 0.255392 0.046263 -0.540661
v 0.255392 0.087237 -0.540661
v 0.891551 0.057018 -0.523598
v 0.891551 0.066736 -0.523598
v 0.891551 0.057943 -0.541367
v 0.891551 0.065811 -0.541367
v 0.541314 0.049487 -0.540661
v 0.541314 0.079633 -0.540661
v 0.255392 0.066750 0.180213
v 0.255392 0.066750 -0.674416
v 0.784537 0.070640 -0.656160
v 0.784537 0.054753 -0.656160
v 0.891551 0.061876 -0.565503
v 0.891551 0.061876 -0.472279
v 0.541314 0.064559 -0.674416
v 0.784537 0.062697 -0.732591
v -0.255392 0.043156 0.128894
v -0.255392 0.090343 0.128894
v -0.255392 0.046263 -0.540661
v -0.255392 0.087237 -0.540661
v -0.891551 0.057018 -0.523598
v -0.891551 0.066736 -0.523598
v -0.891551 0.057943 -0.541367
v -0.891551 0.065811 -0.541367
v -0.541314 0.049487 -0.540661
v -0.541314 0.079633 -0.540661
v -0.255392 0.066750 0.180213
v -0.255392 0.066750 -0.674416
v -0.784537 0.070640 -0.656160
v -0.784537 0.054753 -0.656160
v -0.891551 0.061876 -0.565503
v -0.891551 0.061876 -0.472279
v -0.541314 0.064559 -0.674416
v -0.784537 0.062697 -0.732591
vn -1.0000 -0.0000 -0.0000
vn 0.0266 0.9996 -0.0046
vn 0.0113 -0.9999 -0.0046
vn 0.0076 0.9937 -0.1120
vn 0.0111 -0.9884 -0.1514
vn 0.0263 0.9881 -0.1514
vn -0.0076 -0.9937 -0.1120
vn 1.0000 -0.0000 -0.0000
vn -0.0266 0.9996 -0.0046
vn -0.0113 -0.9999 -0.0046
vn -0.0076 0.9937 -0.1120
vn -0.0111 -0.9884 -0.1514
vn -0.0263 0.9881 -0.1514
vn 0.0076 -0.9937 -0.1120
vn 0.1667 0.9807 -0.1019
vn 0.0215 -0.9998 -0.0003
vn 0.1514 -0.9819 -0.1138
vn 0.0368 0.9993 -0.0003
vn 0.1520 -0.9831 -0.1022
vn 0.1661 0.9795 -0.1136
vn -0.1667 0.9807 -0.1019
vn -0.0215 -0.9998 -0.0003
vn -0.1514 -0.9819 -0.1138
vn -0.0368 0.9993 -0.0003
vn -0.1520 -0.9831 -0.1022
vn -0.1661 0.9795 -0.1136
vn -0.0316 -0.9932 -0.1119
vn 0.3992 0.8330 0.3830
vn -0.0171 0.9945 -0.1034
vn 0.1175 -0.9886 0.0936
vn -0.0323 -0.9941 -0.1033
vn 0.1325 0.9868 0.0934
vn -0.0164 0.9936 -0.1120
vn 0.3884 -0.8372 0.3849
vn 0.0316 -0.9932 -0.1119
vn -0.3992 0.8330 0.3830
vn 0.0171 0.9945 -0.1034
vn -0.1175 -0.9886 0.0936
vn 0.0323 -0.9941 -0.1033
vn -0.1325 0.9868 0.0934
vn 0.0164 0.9936 -0.1120
vn -0.3884 -0.8372 0.3849
vt 0.500000 0.000000
vt 0.625000 0.250000
vt 0.500000 0.250000
vt 0.788007 0.500000
vt 0.875000 0.500000
vt 0.788007 0.750000
vt 0.125000 0.500000
vt 0.211993 0.500000
vt 0.125000 0.750000
vt 0.625000 0.336993
vt 0.500000 0.336993
vt 0.375000 0.336993
vt 0.375000 0.250000
vt 0.375000 0.000000
vt 0.625000 0.000000
vt 0.500000 0.500000
vt 0.375000 0.750000
vt 0.375000 0.500000
vt 0.625000 0.500000
vt 0.625000 0.750000
vt 0.625000 0.415950
vt 0.500000 0.415950
vt 0.290950 0.500000
vt 0.290950 0.750000
vt 0.375000 0.415950
vt 0.709050 0.500000
vt 0.709050 0.750000
vt 0.500000 0.750000
vt 0.625000 0.834050
vt 0.500000 0.834050
vt 0.211993 0.750000
vt 0.375000 0.834050
s 0
usemtl Material.016
f 11/1/1 4/2/1 12/3/1
f 10/4/2 4/5/2 2/6/2
f 3/7/3 9/8/3 1/9/3
f 12/3/4 10/10/4 17/11/4
f 12/3/5 9/12/5 3/13/5
f 11/1/1 3/13/1 1/14/1
f 11/1/1 2/15/1 4/2/1
f 12/3/6 4/2/6 10/10/6
f 12/3/7 17/11/7 9/12/7
f 11/1/1 12/3/1 3/13/1
f 15/16/8 5/17/8 7/18/8
f 15/16/8 8/19/8 6/20/8
f 29/1/8 30/3/8 22/2/8
f 28/4/9 20/6/9 22/5/9
f 21/7/10 19/9/10 27/8/10
f 30/3/11 35/11/11 28/10/11
f 30/3/12 21/13/12 27/12/12
f 29/1/8 19/14/8 21/13/8
f 29/1/8 22/2/8 20/15/8
f 30/3/13 28/10/13 22/2/13
f 30/3/14 27/12/14 35/11/14
f 29/1/8 21/13/8 30/3/8
f 33/16/1 25/18/1 23/17/1
f 33/16/1 24/20/1 26/19/1
usemtl Material.026
f 13/21/15 15/16/15 18/22/15
f 14/23/16 5/17/16 1/24/16
f 7/18/17 5/17/17 14/25/17 15/16/17
f 13/26/18 2/27/18 6/20/18
f 14/25/19 18/22/19 15/16/19
f 8/19/20 15/16/20 13/26/20 6/20/20
f 31/21/21 36/22/21 33/16/21
f 32/23/22 19/24/22 23/17/22
f 25/18/23 33/16/23 32/25/23 23/17/23
f 31/26/24 24/20/24 20/27/24
f 32/25/25 33/16/25 36/22/25
f 26/19/26 24/20/26 31/26/26 33/16/26
usemtl Material.027
f 15/16/8 6/20/8 16/28/8
f 17/11/27 14/25/27 9/12/27
f 13/26/18 10/4/18 2/27/18
f 16/28/28 2/29/28 11/30/28
f 9/8/16 14/23/16 1/31/16
f 17/11/29 13/21/29 18/22/29
f 16/28/30 1/32/30 5/17/30
f 17/11/31 18/22/31 14/25/31
f 16/28/32 6/20/32 2/29/32
f 17/11/33 10/10/33 13/21/33
f 16/28/34 11/30/34 1/32/34
f 15/16/8 16/28/8 5/17/8
f 33/16/1 34/28/1 24/20/1
f 35/11/35 27/12/35 32/25/35
f 31/26/24 20/27/24 28/4/24
f 34/28/36 29/30/36 20/29/36
f 27/8/22 19/31/22 32/23/22
f 35/11/37 36/22/37 31/21/37
f 34/28/38 23/17/38 19/32/38
f 35/11/39 32/25/39 36/22/39
f 34/28/40 20/29/40 24/20/40
f 35/11/41 31/21/41 28/10/41
f 34/28/42 19/32/42 29/30/42
f 33/16/1 23/17/1 34/28/1
o Cube.001
v 0.267001 -0.000822 -0.823743
v 0.265926 0.020026 -0.823743
v 0.267001 0.005524 -1.208234
v 0.265926 0.013681 -1.208234
v 0.614303 0.027099 -1.214985
v 0.614099 0.033304 -1.214985
v 0.553811 0.022106 -1.273372
v 0.553515 0.031125 -1.273372
v 0.397311 0.009475 -0.977086
v 0.396794 0.025201 -0.977086
v 0.266464 0.009602 -0.791870
v 0.266464 0.009602 -1.226756
v 0.614201 0.030201 -1.233507
v 0.397052 0.017338 -0.945213
v 0.553663 0.026615 -1.289696
v 0.397052 0.017338 -0.891485
v 0.397311 0.009475 -0.923359
v 0.396794 0.025201 -0.923359
v 0.614201 0.030201 -1.158624
v 0.614303 0.027099 -1.190497
v 0.614099 0.033304 -1.190497
v -0.267001 -0.000822 -0.823743
v -0.265926 0.020026 -0.823743
v -0.267001 0.005524 -1.208234
v -0.265926 0.013681 -1.208234
v -0.614303 0.027099 -1.214985
v -0.614099 0.033304 -1.214985
v -0.553811 0.022106 -1.273372
v -0.553515 0.031125 -1.273372
v -0.397311 0.009475 -0.977086
v -0.396794 0.025201 -0.977086
v -0.266464 0.009602 -0.791870
v -0.266464 0.009602 -1.226756
v -0.614201 0.030201 -1.233507
v -0.397052 0.017338 -0.945213
v -0.553663 0.026615 -1.289696
v -0.397052 0.017338 -0.891485
v -0.397311 0.009475 -0.923359
v -0.396794 0.025201 -0.923359
v -0.614201 0.030201 -1.158624
v -0.614303 0.027099 -1.190497
v -0.614099 0.033304 -1.190497
vn -0.9987 -0.0515 -0.0000
vn 0.1661 0.9610 -0.2210
vn 0.2233 0.9374 -0.2672
vn 0.1567 0.9635 -0.2171
vn 0.3240 0.9008 0.2890
vn 0.2703 0.9248 0.2676
vn 0.2655 0.9264 0.2669
vn 0.0810 -0.9967 0.0034
vn 0.0813 -0.9967 0.0003
vn 0.0830 -0.9965 -0.0015
vn -0.0610 0.9980 -0.0153
vn -0.0637 0.9978 -0.0166
vn -0.0663 0.9977 -0.0126
vn 0.0608 -0.9980 -0.0140
vn 0.0570 -0.9982 -0.0167
vn 0.0595 -0.9981 -0.0165
vn -0.0279 0.9600 -0.2785
vn -0.1288 0.9205 -0.3690
vn -0.1301 0.9174 -0.3761
vn 0.0223 -0.9917 -0.1268
vn -0.0979 -0.9759 -0.1949
vn 0.0233 -0.9925 -0.1203
vn 0.3603 -0.8971 0.2557
vn 0.3063 -0.9236 0.2305
vn 0.3652 -0.8949 0.2564
vn 0.1941 -0.9692 -0.1519
vn 0.2520 -0.9474 -0.1974
vn 0.2597 -0.9445 -0.2012
vn -0.9900 -0.1409 -0.0023
vn -0.0351 0.9994 -0.0023
vn -0.0373 0.9993 -0.0000
vn -0.0376 0.9993 0.0004
vn 0.9995 0.0329 -0.0000
vn -0.0369 0.9993 0.0003
vn -0.0373 0.9993 0.0036
vn -0.0349 0.9994 -0.0020
vn 0.2536 -0.9550 0.1539
vn 0.1204 -0.9863 0.1125
vn 0.2592 -0.9534 0.1546
vn 0.3074 0.9283 0.2094
vn 0.1728 0.9690 0.1766
vn 0.1672 0.9701 0.1761
vn 0.9995 0.0328 -0.0000
vn -0.9995 -0.0329 -0.0000
vn 0.0835 -0.9965 -0.0003
vn 0.0810 -0.9967 -0.0000
vn -0.9995 -0.0328 -0.0000
vn -0.9900 -0.1412 0.0023
vn 0.0791 0.9850 -0.1536
vn 0.1484 0.9678 -0.2032
vn 0.1404 0.9699 -0.1991
vn 0.2545 0.9320 0.2579
vn 0.2594 0.9305 0.2588
vn 0.1998 0.9516 0.2336
vn -0.0564 0.9983 -0.0146
vn -0.0588 0.9981 -0.0165
vn -0.0617 0.9980 -0.0168
vn 0.0574 -0.9983 -0.0142
vn 0.0521 -0.9986 -0.0127
vn 0.0546 -0.9984 -0.0162
vn -0.0976 0.9870 -0.1277
vn -0.0950 0.9880 -0.1214
vn -0.2130 0.9567 -0.1984
vn 0.0850 -0.9560 -0.2807
vn -0.0209 -0.9261 -0.3767
vn -0.0189 -0.9290 -0.3697
vn 0.4276 -0.8569 0.2878
vn 0.3704 -0.8904 0.2646
vn 0.3752 -0.8882 0.2653
vn 0.2760 -0.9360 -0.2184
vn 0.2668 -0.9395 -0.2146
vn 0.3292 -0.9065 -0.2643
vn -0.0342 0.9994 -0.0005
vn 0.4102 -0.8882 0.2069
vn 0.2776 -0.9448 0.1739
vn 0.2831 -0.9431 0.1743
vn 0.1409 0.9778 0.1554
vn 0.1467 0.9768 0.1560
vn 0.0029 0.9935 0.1141
vn 0.0827 -0.9966 -0.0018
vn 0.0806 -0.9967 0.0004
vn 0.9987 -0.0515 -0.0000
vn -0.1661 0.9610 -0.2210
vn -0.1567 0.9635 -0.2171
vn -0.2233 0.9374 -0.2672
vn -0.3240 0.9008 0.2890
vn -0.2655 0.9264 0.2669
vn -0.2703 0.9248 0.2676
vn -0.0810 -0.9967 0.0034
vn -0.0830 -0.9965 -0.0015
vn -0.0813 -0.9967 0.0003
vn 0.0610 0.9980 -0.0153
vn 0.0663 0.9977 -0.0126
vn 0.0637 0.9978 -0.0166
vn -0.0609 -0.9980 -0.0140
vn -0.0595 -0.9981 -0.0165
vn -0.0570 -0.9982 -0.0167
vn 0.0280 0.9597 -0.2795
vn 0.1301 0.9174 -0.3761
vn 0.1288 0.9205 -0.3689
vn -0.0223 -0.9917 -0.1268
vn -0.0233 -0.9925 -0.1203
vn 0.0982 -0.9755 -0.1968
vn -0.3603 -0.8971 0.2557
vn -0.3652 -0.8949 0.2564
vn -0.3063 -0.9236 0.2305
vn -0.1941 -0.9692 -0.1519
vn -0.2597 -0.9445 -0.2012
vn -0.2520 -0.9474 -0.1974
vn 0.9900 -0.1409 -0.0023
vn 0.0351 0.9994 -0.0023
vn 0.0376 0.9993 0.0004
vn 0.0373 0.9993 -0.0000
vn -0.9995 0.0329 -0.0000
vn 0.0369 0.9993 0.0003
vn 0.0349 0.9994 -0.0020
vn 0.0373 0.9993 0.0036
vn -0.2536 -0.9550 0.1539
vn -0.2591 -0.9534 0.1545
vn -0.1204 -0.9863 0.1125
vn -0.3074 0.9283 0.2094
vn -0.1672 0.9701 0.1761
vn -0.1728 0.9690 0.1766
vn -0.9995 0.0328 -0.0000
vn 0.9995 -0.0329 -0.0000
vn -0.0835 -0.9965 -0.0003
vn -0.0810 -0.9967 -0.0000
vn 0.9995 -0.0328 -0.0000
vn 0.9900 -0.1412 0.0023
vn -0.0791 0.9850 -0.1536
vn -0.1404 0.9699 -0.1991
vn -0.1484 0.9678 -0.2032
vn -0.2545 0.9320 0.2579
vn -0.1998 0.9516 0.2336
vn -0.2594 0.9305 0.2588
vn 0.0564 0.9983 -0.0146
vn 0.0617 0.9980 -0.0168
vn 0.0588 0.9981 -0.0165
vn -0.0574 -0.9983 -0.0143
vn -0.0546 -0.9984 -0.0162
vn -0.0521 -0.9986 -0.0127
vn 0.0976 0.9870 -0.1277
vn 0.2127 0.9570 -0.1972
vn 0.0950 0.9880 -0.1215
vn -0.0852 -0.9564 -0.2792
vn 0.0189 -0.9290 -0.3696
vn 0.0209 -0.9261 -0.3767
vn -0.4276 -0.8569 0.2878
vn -0.3752 -0.8882 0.2653
vn -0.3704 -0.8904 0.2646
vn -0.2760 -0.9360 -0.2184
vn -0.3292 -0.9065 -0.2643
vn -0.2668 -0.9395 -0.2146
vn 0.0342 0.9994 -0.0005
vn -0.4103 -0.8882 0.2069
vn -0.2831 -0.9431 0.1743
vn -0.2776 -0.9448 0.1739
vn -0.1409 0.9778 0.1554
vn -0.0029 0.9935 0.1141
vn -0.1467 0.9768 0.1560
vn -0.0827 -0.9966 -0.0018
vn -0.0806 -0.9967 0.0004
vt 0.625000 0.000000
vt 0.500000 0.250000
vt 0.500000 0.000000
vt 0.625000 0.447539
vt 0.500000 0.500000
vt 0.500000 0.447539
vt 0.500000 0.910180
vt 0.625000 1.000000
vt 0.500000 1.000000
vt 0.322539 0.500000
vt 0.375000 0.750000
vt 0.322539 0.750000
vt 0.875000 0.500000
vt 0.785180 0.750000
vt 0.785180 0.500000
vt 0.125000 0.500000
vt 0.214820 0.750000
vt 0.125000 0.750000
vt 0.625000 0.339820
vt 0.500000 0.339820
vt 0.375000 0.339820
vt 0.375000 0.250000
vt 0.375000 1.000000
vt 0.375000 0.910180
vt 0.375000 0.447539
vt 0.375000 0.500000
vt 0.375000 0.000000
vt 0.677461 0.750000
vt 0.625000 0.750000
vt 0.500000 0.750000
vt 0.625000 0.500000
vt 0.677461 0.500000
vt 0.375000 0.802461
vt 0.625000 0.802461
vt 0.500000 0.802461
vt 0.625000 0.910180
vt 0.625000 0.250000
vt 0.875000 0.750000
vt 0.214820 0.500000
s 0
usemtl Material.018
f 38/33/43 48/34/43 47/35/43
f 44/36/44 49/37/45 51/38/46
f 50/39/47 38/40/48 47/41/49
f 43/42/50 41/43/51 45/44/52
f 40/45/53 46/46/54 44/47/55
f 39/48/56 45/49/57 37/50/58
f 48/34/59 44/51/60 51/52/61
f 48/34/62 43/53/63 39/54/64
f 50/39/65 37/55/66 45/56/67
f 43/57/68 49/37/69 41/58/70
f 37/59/71 48/34/71 39/54/71
f 46/60/72 57/61/73 42/61/74
f 49/62/75 56/43/75 41/43/75
f 42/63/76 44/64/77 46/60/78
f 55/62/79 53/65/80 56/43/81
f 55/62/82 54/66/83 52/67/84
f 49/62/85 57/61/85 55/62/85
f 50/39/86 53/56/86 52/39/86
f 45/44/87 56/43/88 53/44/88
f 50/39/89 54/68/89 46/68/89
f 38/33/90 40/69/90 48/34/90
f 44/36/91 42/63/92 49/37/93
f 50/39/94 46/68/95 38/40/96
f 40/45/97 38/70/98 46/46/99
f 39/48/100 43/71/101 45/49/102
f 48/34/103 40/69/104 44/51/105
f 48/34/106 51/52/107 43/53/108
f 50/39/109 47/41/110 37/55/111
f 43/57/112 51/38/113 49/37/114
f 37/59/43 47/35/43 48/34/43
f 46/60/115 54/60/73 57/61/73
f 49/62/85 55/62/85 56/43/85
f 55/62/116 52/67/117 53/65/118
f 55/62/119 57/61/120 54/66/121
f 49/62/75 42/61/75 57/61/75
f 50/39/86 45/56/86 53/56/86
f 45/44/122 41/43/123 56/43/88
f 50/39/89 52/39/89 54/68/89
f 59/33/124 68/35/124 69/34/124
f 65/36/125 72/38/126 70/37/127
f 71/39/128 68/41/129 59/40/130
f 64/42/131 66/44/132 62/43/133
f 61/45/134 65/47/135 67/46/136
f 60/48/137 58/50/138 66/49/139
f 69/34/140 72/52/141 65/51/142
f 69/34/143 60/54/144 64/53/145
f 71/39/146 66/56/147 58/55/148
f 64/57/149 62/58/150 70/37/151
f 58/59/152 60/54/152 69/34/152
f 67/60/153 63/61/154 78/61/155
f 70/62/156 62/43/156 77/43/156
f 63/63/157 67/60/158 65/64/159
f 76/62/160 77/43/161 74/65/162
f 76/62/163 73/67/164 75/66/165
f 70/62/166 76/62/166 78/61/166
f 71/39/167 73/39/167 74/56/167
f 66/44/168 74/44/169 77/43/169
f 71/39/170 67/68/170 75/68/170
f 59/33/171 69/34/171 61/69/171
f 65/36/172 70/37/173 63/63/174
f 71/39/175 59/40/176 67/68/177
f 61/45/178 67/46/179 59/70/180
f 60/48/181 66/49/182 64/71/183
f 69/34/184 65/51/185 61/69/186
f 69/34/187 64/53/188 72/52/189
f 71/39/190 58/55/191 68/41/192
f 64/57/193 70/37/194 72/38/195
f 58/59/124 69/34/124 68/35/124
f 67/60/196 78/61/155 75/60/155
f 70/62/166 77/43/166 76/62/166
f 76/62/197 74/65/198 73/67/199
f 76/62/200 75/66/201 78/61/202
f 70/62/156 78/61/156 63/61/156
f 71/39/167 74/56/167 66/56/167
f 66/44/203 77/43/169 62/43/204
f 71/39/170 75/68/170 73/39/170
o Cube.002
v 0.212512 0.026566 -0.664241
v 0.220352 0.524790 -1.039151
v 0.212512 0.026566 -1.075092
v 0.220352 0.524790 -1.096295
v 0.242200 0.026566 -0.664241
v 0.234360 0.524790 -1.039151
v 0.242200 0.026566 -1.075092
v 0.234360 0.524790 -1.096295
v 0.227356 0.026566 -1.100872
v 0.227356 0.524790 -1.122076
v 0.227356 0.026566 -0.638461
v 0.227356 0.524790 -1.013371
v -0.212512 0.026566 -0.664241
v -0.220352 0.524790 -1.039151
v -0.212512 0.026566 -1.075092
v -0.220352 0.524790 -1.096295
v -0.242200 0.026566 -0.664241
v -0.234360 0.524790 -1.039151
v -0.242200 0.026566 -1.075092
v -0.234360 0.524790 -1.096295
v -0.227356 0.026566 -1.100872
v -0.227356 0.524790 -1.122076
v -0.227356 0.026566 -0.638461
v -0.227356 0.524790 -1.013371
vn -0.9999 0.0157 -0.0000
vn 0.8666 -0.0076 -0.4990
vn 0.9999 0.0157 -0.0000
vn -0.8113 0.3515 0.4671
vn -0.0000 -1.0000 -0.0000
vn -0.0000 1.0000 -0.0000
vn 0.8113 0.3515 0.4671
vn -0.8666 -0.0076 -0.4990
vn 0.9650 -0.0112 -0.2622
vn -0.9439 0.2078 0.2565
vn 0.9439 0.2078 0.2565
vn -0.9650 -0.0112 -0.2622
vt 0.625000 0.000000
vt 0.375000 0.250000
vt 0.375000 0.000000
vt 0.375000 0.375000
vt 0.625000 0.500000
vt 0.375000 0.500000
vt 0.625000 0.750000
vt 0.375000 0.750000
vt 0.625000 0.875000
vt 0.375000 1.000000
vt 0.375000 0.875000
vt 0.250000 0.750000
vt 0.250000 0.500000
vt 0.875000 0.500000
vt 0.750000 0.750000
vt 0.750000 0.500000
vt 0.125000 0.500000
vt 0.125000 0.750000
vt 0.625000 0.250000
vt 0.625000 0.375000
vt 0.625000 1.000000
vt 0.875000 0.750000
s 0
usemtl Material.019
f 80/72/205 81/73/205 79/74/205
f 87/75/206 86/76/206 85/77/206
f 85/77/207 84/78/207 83/79/207
f 90/80/208 79/81/208 89/82/208
f 85/77/209 89/83/209 87/84/209
f 82/85/210 90/86/210 88/87/210
f 86/76/210 90/86/210 84/78/210
f 81/88/209 89/83/209 79/89/209
f 83/79/211 90/80/211 89/82/211
f 82/90/212 87/75/212 81/73/212
f 80/72/205 82/90/205 81/73/205
f 87/75/213 88/91/213 86/76/213
f 85/77/207 86/76/207 84/78/207
f 90/80/214 80/92/214 79/81/214
f 85/77/209 83/79/209 89/83/209
f 82/85/210 80/93/210 90/86/210
f 86/76/210 88/87/210 90/86/210
f 81/88/209 87/84/209 89/83/209
f 83/79/215 84/78/215 90/80/215
f 82/90/216 88/91/216 87/75/216
f 92/72/207 91/74/207 93/73/207
f 99/75/212 97/77/212 98/76/212
f 97/77/205 95/79/205 96/78/205
f 102/80/211 101/82/211 91/81/211
f 97/77/209 99/84/209 101/83/209
f 94/85/210 100/87/210 102/86/210
f 98/76/210 96/78/210 102/86/210
f 93/88/209 91/89/209 101/83/209
f 95/79/208 101/82/208 102/80/208
f 94/90/206 93/73/206 99/75/206
f 92/72/207 93/73/207 94/90/207
f 99/75/216 98/76/216 100/91/216
f 97/77/205 96/78/205 98/76/205
f 102/80/215 91/81/215 92/92/215
f 97/77/209 101/83/209 95/79/209
f 94/85/210 102/86/210 92/93/210
f 98/76/210 102/86/210 100/87/210
f 93/88/209 101/83/209 99/84/209
f 95/79/214 102/80/214 96/78/214
f 94/90/213 99/75/213 100/91/213
o Cube.003
v 0.196655 0.108163 -0.275927
v 0.196655 -0.057631 -0.275927
v 0.210488 0.108163 -0.149490
v 0.210488 -0.057631 -0.149490
v 0.000000 -0.057631 -0.275492
v 0.000000 0.108163 -0.275927
v 0.062921 -0.025517 -0.149490
v 0.037967 0.108163 -0.275927
v 0.037967 -0.057631 -0.275927
v 0.062921 0.107766 -0.149490
v 0.207329 0.108163 0.693424
v 0.207329 -0.091735 0.330962
v 0.092780 -0.091735 0.330962
v 0.092780 0.108163 0.695033
v 0.062921 -0.091735 -0.149490
v 0.210488 -0.091735 -0.149490
v 0.196655 -0.091735 -0.275927
v 0.037967 -0.091735 -0.275927
v 0.179242 0.095794 -0.477887
v 0.179242 -0.050084 -0.477887
v 0.000000 -0.050084 -0.477887
v 0.000000 0.095794 -0.477887
v 0.015457 0.095794 -0.477887
v 0.015457 -0.050084 -0.477887
v 0.179242 -0.084188 -0.477887
v 0.015457 -0.084188 -0.477887
v 0.129029 0.108163 -0.275927
v 0.129029 -0.091735 -0.275927
v 0.174327 0.065398 -0.709066
v 0.174327 -0.042537 -0.709066
v 0.000000 -0.042537 -0.709066
v 0.000000 0.082692 -0.709066
v 0.013643 0.082692 -0.709066
v 0.013643 -0.042537 -0.709066
v 0.174327 -0.076641 -0.709066
v 0.013643 -0.076641 -0.709066
v 0.015457 0.134260 -0.477887
v 0.179242 0.134260 -0.477887
v 0.013643 0.134260 -0.709066
v 0.174327 0.134260 -0.709066
v 0.000000 -0.042537 -0.769344
v 0.000000 0.082692 -0.769344
v 0.174327 0.065398 -0.769344
v 0.174327 -0.042537 -0.769344
v 0.013643 0.082692 -0.769344
v 0.013643 -0.042537 -0.769344
v 0.013643 -0.076641 -0.769344
v 0.174327 -0.076641 -0.769344
v 0.174327 0.134260 -0.769344
v 0.013643 0.134260 -0.769344
v 0.174327 -0.032515 -1.020602
v 0.000000 0.185813 0.751646
v 0.000000 -0.057631 0.751646
v 0.000000 0.160418 0.961248
v 0.000000 -0.057631 0.961248
v 0.042701 0.183332 0.751646
v 0.095939 0.106945 0.751646
v 0.000000 -0.057631 1.194453
v 0.095939 -0.010351 0.751646
v 0.042909 -0.057631 0.751646
v 0.088072 0.079078 1.194453
v 0.094557 0.094498 0.961248
v 0.045347 0.154662 0.961248
v 0.000000 0.123391 1.194453
v 0.044393 -0.057631 0.961248
v 0.094557 -0.010351 0.961248
v 0.039603 0.121958 1.194453
v 0.038770 -0.057631 1.194453
v 0.088072 -0.010351 1.194453
v 0.000000 -0.033370 1.433760
v 0.036304 0.018173 1.433760
v 0.000000 0.040045 1.433760
v 0.018378 0.040045 1.433760
v 0.018543 -0.033370 1.433760
v 0.036304 -0.005886 1.433760
v 0.000000 -0.001479 1.518993
v 0.039828 -0.057631 -0.275056
v 0.210488 -0.008696 -0.149490
v 0.174327 -0.026933 -0.769344
v 0.174327 -0.027558 -0.709066
v 0.179242 -0.028409 -0.477887
v 0.196655 -0.020106 -0.275927
v 0.174327 -0.022272 -0.945865
v 0.174327 0.053387 -0.945865
v 0.269219 0.108163 -0.279146
v 0.269219 0.108163 -0.152709
v 0.237865 0.108163 0.693424
v 0.269219 0.095794 -0.481106
v 0.269219 0.065398 -0.712285
v 0.269219 0.065398 -0.772563
v 0.269219 -0.008696 -0.152709
v 0.269219 -0.026933 -0.772563
v 0.269219 -0.027558 -0.712285
v 0.269219 -0.028409 -0.481106
v 0.269219 -0.020106 -0.279146
v 0.269219 0.053387 -0.949084
v 0.269219 -0.022272 -0.949084
v 0.174912 0.009373 -1.099961
v 0.269219 0.009373 -1.230455
v 0.013643 -0.014471 -0.917403
v 0.000000 -0.014471 -0.917403
v 0.000000 0.054626 -0.917403
v 0.013643 0.054626 -0.917403
v 0.013643 0.008729 -1.014362
v 0.000000 0.008729 -1.014362
v 0.000000 0.031426 -1.014362
v 0.013643 0.031426 -1.014362
v 0.160139 0.110595 -0.945865
v 0.160139 -0.037535 -0.945865
v 0.027831 0.110595 -0.945865
v 0.027831 -0.037535 -0.945865
v 0.174327 0.110595 -0.945865
v 0.174327 -0.037535 -0.945865
v 0.013643 0.110595 -0.945865
v 0.013643 -0.037535 -0.945865
v 0.013643 -0.061084 -0.945865
v 0.174327 -0.061084 -0.945865
v 0.174327 0.128380 -0.945865
v 0.013643 0.128380 -0.945865
v 0.174327 0.105426 -1.020602
v 0.013643 0.105426 -1.020602
v 0.013643 -0.032515 -1.020602
v 0.013643 -0.054436 -1.020602
v 0.174327 -0.054436 -1.020602
v 0.174327 0.121996 -1.020602
v 0.013643 0.121996 -1.020602
v 0.160139 0.105426 -1.020602
v 0.160139 -0.032515 -1.020602
v 0.027831 0.105426 -1.020602
v 0.027831 -0.032515 -1.020602
v 0.013643 -0.030734 -1.121063
v 0.013643 -0.038736 -1.121063
v 0.174327 -0.030734 -1.121063
v 0.174327 -0.038736 -1.121063
v 0.174327 0.101413 -1.121063
v 0.174327 0.110779 -1.121063
v 0.013643 0.110779 -1.121063
v 0.013643 0.101413 -1.121063
v 0.027831 0.101413 -1.121063
v 0.160139 0.101413 -1.121063
v 0.160139 -0.030734 -1.121063
v 0.027831 -0.030734 -1.121063
v 0.249657 0.073113 0.557854
v 0.208908 0.073113 0.557854
v 0.225198 0.073175 0.557854
v 0.249657 0.108163 0.557854
v -0.196655 0.108163 -0.275927
v -0.196655 -0.057631 -0.275927
v -0.210488 0.108163 -0.149490
v -0.210488 -0.057631 -0.149490
v -0.062921 -0.025517 -0.149490
v -0.037967 0.108163 -0.275927
v -0.037967 -0.057631 -0.275927
v -0.062921 0.107766 -0.149490
v -0.207329 0.108163 0.693424
v -0.207329 -0.091735 0.330962
v -0.092780 -0.091735 0.330962
v -0.092780 0.108163 0.695033
v -0.062921 -0.091735 -0.149490
v -0.210488 -0.091735 -0.149490
v -0.196655 -0.091735 -0.275927
v -0.037967 -0.091735 -0.275927
v -0.179242 0.095794 -0.477887
v -0.179242 -0.050084 -0.477887
v -0.015457 0.095794 -0.477887
v -0.015457 -0.050084 -0.477887
v -0.179242 -0.084188 -0.477887
v -0.015457 -0.084188 -0.477887
v -0.129029 0.108163 -0.275927
v -0.129029 -0.091735 -0.275927
v -0.174327 0.065398 -0.709066
v -0.174327 -0.042537 -0.709066
v -0.013643 0.082692 -0.709066
v -0.013643 -0.042537 -0.709066
v -0.174327 -0.076641 -0.709066
v -0.013643 -0.076641 -0.709066
v -0.015457 0.134260 -0.477887
v -0.179242 0.134260 -0.477887
v -0.013643 0.134260 -0.709066
v -0.174327 0.134260 -0.709066
v -0.174327 0.065398 -0.769344
v -0.174327 -0.042537 -0.769344
v -0.013643 0.082692 -0.769344
v -0.013643 -0.042537 -0.769344
v -0.013643 -0.076641 -0.769344
v -0.174327 -0.076641 -0.769344
v -0.174327 0.134260 -0.769344
v -0.013643 0.134260 -0.769344
v -0.174327 -0.032515 -1.020602
v -0.042701 0.183332 0.751646
v -0.095939 0.106945 0.751646
v -0.095939 -0.010351 0.751646
v -0.042909 -0.057631 0.751646
v -0.088072 0.079078 1.194453
v -0.094557 0.094498 0.961248
v -0.045347 0.154662 0.961248
v -0.044393 -0.057631 0.961248
v -0.094557 -0.010351 0.961248
v -0.039603 0.121958 1.194453
v -0.038770 -0.057631 1.194453
v -0.088072 -0.010351 1.194453
v -0.036304 0.018173 1.433760
v -0.018378 0.040045 1.433760
v -0.018543 -0.033370 1.433760
v -0.036304 -0.005886 1.433760
v -0.039828 -0.057631 -0.275056
v -0.210488 -0.008696 -0.149490
v -0.174327 -0.026933 -0.769344
v -0.174327 -0.027558 -0.709066
v -0.179242 -0.028409 -0.477887
v -0.196655 -0.020106 -0.275927
v -0.174327 -0.022272 -0.945865
v -0.174327 0.053387 -0.945865
v -0.269219 0.108163 -0.279146
v -0.269219 0.108163 -0.152709
v -0.237865 0.108163 0.693424
v -0.269219 0.095794 -0.481106
v -0.269219 0.065398 -0.712285
v -0.269219 0.065398 -0.772563
v -0.269219 -0.008696 -0.152709
v -0.269219 -0.026933 -0.772563
v -0.269219 -0.027558 -0.712285
v -0.269219 -0.028409 -0.481106
v -0.269219 -0.020106 -0.279146
v -0.269219 0.053387 -0.949084
v -0.269219 -0.022272 -0.949084
v -0.174912 0.009373 -1.099961
v -0.269219 0.009373 -1.230455
v -0.013643 -0.014471 -0.917403
v -0.013643 0.054626 -0.917403
v -0.013643 0.008729 -1.014362
v -0.013643 0.031426 -1.014362
v -0.160139 0.110595 -0.945865
v -0.160139 -0.037535 -0.945865
v -0.027831 0.110595 -0.945865
v -0.027831 -0.037535 -0.945865
v -0.174327 0.110595 -0.945865
v -0.174327 -0.037535 -0.945865
v -0.013643 0.110595 -0.945865
v -0.013643 -0.037535 -0.945865
v -0.013643 -0.061084 -0.945865
v -0.174327 -0.061084 -0.945865
v -0.174327 0.128380 -0.945865
v -0.013643 0.128380 -0.945865
v -0.174327 0.105426 -1.020602
v -0.013643 0.105426 -1.020602
v -0.013643 -0.032515 -1.020602
v -0.013643 -0.054436 -1.020602
v -0.174327 -0.054436 -1.020602
v -0.174327 0.121996 -1.020602
v -0.013643 0.121996 -1.020602
v -0.160139 0.105426 -1.020602
v -0.160139 -0.032515 -1.020602
v -0.027831 0.105426 -1.020602
v -0.027831 -0.032515 -1.020602
v -0.013643 -0.030734 -1.121063
v -0.013643 -0.038736 -1.121063
v -0.174327 -0.030734 -1.121063
v -0.174327 -0.038736 -1.121063
v -0.174327 0.101413 -1.121063
v -0.174327 0.110779 -1.121063
v -0.013643 0.110779 -1.121063
v -0.013643 0.101413 -1.121063
v -0.027831 0.101413 -1.121063
v -0.160139 0.101413 -1.121063
v -0.160139 -0.030734 -1.121063
v -0.027831 -0.030734 -1.121063
v -0.249657 0.073113 0.557854
v -0.208908 0.073113 0.557854
v -0.225198 0.073175 0.557854
v -0.249657 0.108163 0.557854
vn -0.0009 -0.9997 -0.0264
vn -0.0000 1.0000 0.0031
vn 0.0006 1.0000 0.0015
vn -0.9811 -0.0000 0.1936
vn -0.0000 0.9981 -0.0611
vn -0.0000 0.9983 -0.0590
vn 0.1251 0.9554 -0.2674
vn -0.0093 0.9615 -0.2747
vn -0.9973 -0.0643 0.0353
vn -0.0000 -0.9993 -0.0373
vn -0.0022 -0.9993 -0.0374
vn -0.0001 1.0000 0.0013
vn -0.0017 1.0000 -0.0005
vn -0.0000 1.0000 -0.0000
vn -0.0000 -1.0000 -0.0000
vn 0.9963 -0.0000 -0.0859
vn 1.0000 -0.0000 0.0066
vn -0.9981 -0.0000 0.0620
vn 0.9941 -0.0000 -0.1088
vn 0.0023 -0.9995 -0.0326
vn -0.0000 -0.9995 -0.0326
vn -0.0002 -0.9994 -0.0349
vn 0.0001 0.9983 -0.0587
vn -0.0000 0.9984 -0.0566
vn 1.0000 -0.0000 -0.0000
vn 0.9998 -0.0000 -0.0213
vn 0.9705 -0.0000 0.2413
vn -0.9938 -0.0000 0.1108
vn -0.0011 0.9982 -0.0607
vn 0.0001 0.9982 -0.0599
vn -0.0004 -0.9993 -0.0373
vn -0.0006 -0.9994 -0.0350
vn -0.0003 1.0000 -0.0013
vn -0.0006 -0.9994 -0.0352
vn -1.0000 -0.0019 -0.0034
vn -1.0000 -0.0000 -0.0000
vn -1.0000 0.0039 -0.0001
vn -0.0000 -0.9994 -0.0348
vn -1.0000 -0.0000 0.0078
vn -0.9999 -0.0001 0.0118
vn -0.0000 0.9918 0.1282
vn 0.8185 0.5705 0.0677
vn 0.6859 -0.7277 0.0045
vn 0.6941 -0.7195 0.0210
vn 0.6884 -0.7251 0.0183
vn 0.6921 -0.7217 0.0167
vn 0.9993 -0.0000 -0.0366
vn 0.6611 0.7472 0.0678
vn 0.9996 -0.0000 0.0278
vn 0.9774 -0.0000 0.2114
vn 0.8333 -0.5385 0.1250
vn -0.0000 -0.9949 0.1009
vn 0.7348 0.6022 0.3122
vn 0.0342 0.9446 0.3264
vn 0.3671 0.9276 -0.0695
vn -0.0000 0.9972 -0.0754
vn 0.6654 -0.7464 -0.0118
vn 0.6629 -0.7486 -0.0104
vn -0.0006 -0.9682 0.2503
vn -0.0011 -0.9682 0.2501
vn 0.0013 -0.9682 0.2501
vn 0.0047 -0.9960 0.0896
vn 0.0055 -0.9959 0.0899
vn 0.0049 -0.9959 0.0899
vn -0.0004 -0.9999 -0.0104
vn -0.0032 -0.9999 -0.0120
vn 0.0029 -0.9999 -0.0105
vn -0.0028 0.9981 -0.0619
vn -0.0022 0.9981 -0.0609
vn -0.0009 0.9981 -0.0610
vn 0.9962 -0.0000 0.0867
vn -0.0044 0.9915 -0.1304
vn 0.0004 1.0000 -0.0012
vn 0.0006 1.0000 0.0011
vn -0.0023 0.9977 -0.0679
vn 0.0018 -0.9992 0.0411
vn 0.0021 -0.9991 0.0412
vn -0.0001 -1.0000 -0.0004
vn -0.0001 -1.0000 -0.0037
vn -0.1528 -0.9821 -0.1104
vn -0.2091 0.9661 -0.1511
vn -0.0039 1.0000 0.0001
vn -0.0021 1.0000 0.0013
vn -0.0044 1.0000 0.0001
vn 0.0001 -0.9994 -0.0350
vn 0.0021 0.9984 -0.0566
vn -0.0000 -0.9994 -0.0349
vn -0.0023 -0.9993 -0.0371
vn -0.0027 1.0000 0.0017
vn -0.0010 1.0000 0.0014
vn -0.0037 1.0000 0.0009
vn -1.0000 -0.0000 -0.0039
vn -1.0000 -0.0039 0.0078
vn -0.9999 0.0005 0.0117
vn 0.7733 0.6325 0.0427
vn 0.6655 -0.7464 -0.0047
vn 0.6657 -0.7462 -0.0011
vn 0.6895 -0.7241 0.0177
vn 0.6858 -0.7276 0.0191
vn 0.6835 -0.7298 0.0148
vn 0.7696 0.6295 0.1072
vn 0.6831 -0.7123 0.1611
vn 0.6320 0.7143 0.3006
vn -0.0000 0.9444 0.3289
vn 0.8200 0.5715 -0.0295
vn 0.0578 0.9956 -0.0731
vn 0.8164 -0.5775 -0.0024
vn 0.9998 -0.0182 0.0063
vn -0.0021 -0.9678 0.2519
vn -0.0025 -0.9682 0.2501
vn -0.0027 -0.9688 0.2478
vn 0.0036 -0.9960 0.0893
vn 0.0040 -0.9960 0.0894
vn 0.0044 -0.9959 0.0898
vn -0.0004 -0.9999 -0.0137
vn -0.0028 0.9981 -0.0623
vn -0.0027 0.9981 -0.0611
vn -0.0047 0.9915 -0.1303
vn 0.0012 1.0000 -0.0005
vn -0.0000 1.0000 0.0013
vn 0.0015 -0.9992 0.0410
vn 0.0017 -0.9991 0.0412
vn 0.0012 -1.0000 -0.0007
vn -0.0034 -1.0000 -0.0035
vn -1.0000 -0.0000 -0.0038
vn -0.0068 -0.9795 -0.2012
vn 0.0038 -0.9933 0.1152
vn 0.0038 -0.9934 0.1149
vn 0.0038 -0.9934 0.1150
vn 0.0037 -0.9934 0.1147
vn 0.9996 -0.0000 0.0275
vn 0.0009 -0.9997 -0.0264
vn -0.0006 1.0000 0.0015
vn 0.9811 -0.0000 0.1936
vn 0.0022 0.9981 -0.0612
vn -0.1251 0.9554 -0.2674
vn 0.0093 0.9615 -0.2747
vn 0.9973 -0.0643 0.0353
vn 0.0022 -0.9993 -0.0374
vn 0.0001 1.0000 0.0013
vn 0.0017 1.0000 -0.0005
vn -0.9963 -0.0000 -0.0859
vn -1.0000 -0.0000 0.0066
vn 0.9981 -0.0000 0.0620
vn -0.9941 -0.0000 -0.1088
vn -0.0023 -0.9995 -0.0326
vn -0.0001 0.9983 -0.0587
vn -0.9998 -0.0000 -0.0213
vn -0.9705 -0.0000 0.2413
vn 0.9938 -0.0000 0.1108
vn -0.0001 0.9982 -0.0599
vn 0.0011 0.9982 -0.0607
vn 0.0004 -0.9993 -0.0373
vn 0.0003 1.0000 -0.0013
vn 0.0006 -0.9994 -0.0352
vn 1.0000 -0.0019 -0.0034
vn 1.0000 0.0039 -0.0001
vn 1.0000 -0.0000 0.0078
vn 0.9999 -0.0001 0.0118
vn -0.8185 0.5705 0.0677
vn -0.6859 -0.7277 0.0045
vn -0.6941 -0.7195 0.0210
vn -0.6921 -0.7217 0.0167
vn -0.6884 -0.7251 0.0183
vn -0.9993 -0.0000 -0.0366
vn -0.6611 0.7472 0.0678
vn -0.9996 -0.0000 0.0278
vn -0.9774 -0.0000 0.2114
vn -0.8333 -0.5385 0.1250
vn -0.7348 0.6022 0.3122
vn -0.0342 0.9446 0.3264
vn -0.3671 0.9276 -0.0695
vn -0.6654 -0.7464 -0.0118
vn -0.6629 -0.7486 -0.0104
vn 0.0006 -0.9682 0.2503
vn -0.0013 -0.9682 0.2501
vn 0.0011 -0.9682 0.2501
vn -0.0047 -0.9960 0.0896
vn -0.0049 -0.9959 0.0899
vn -0.0055 -0.9959 0.0899
vn 0.0004 -0.9999 -0.0104
vn -0.0029 -0.9999 -0.0105
vn 0.0032 -0.9999 -0.0120
vn 0.0028 0.9981 -0.0619
vn 0.0009 0.9981 -0.0610
vn 0.0022 0.9981 -0.0609
vn -0.9962 -0.0000 0.0867
vn 0.0044 0.9915 -0.1304
vn -0.0004 1.0000 -0.0012
vn -0.0006 1.0000 0.0012
vn 0.0023 0.9977 -0.0679
vn -0.0018 -0.9992 0.0411
vn -0.0021 -0.9991 0.0412
vn 0.0001 -1.0000 -0.0004
vn 0.0001 -1.0000 -0.0037
vn 0.1528 -0.9821 -0.1104
vn 0.0002 0.9983 -0.0590
vn 0.2091 0.9661 -0.1511
vn 0.0039 1.0000 0.0001
vn 0.0044 1.0000 0.0001
vn 0.0021 1.0000 0.0013
vn -0.0001 -0.9994 -0.0350
vn -0.0021 0.9984 -0.0566
vn -0.0000 0.9983 -0.0587
vn 0.0027 1.0000 0.0017
vn 0.0036 1.0000 0.0009
vn 0.0010 1.0000 0.0014
vn 1.0000 -0.0000 -0.0039
vn 0.9999 0.0005 0.0117
vn 1.0000 -0.0039 0.0078
vn -0.7733 0.6325 0.0427
vn -0.6655 -0.7464 -0.0047
vn -0.6657 -0.7462 -0.0011
vn -0.6895 -0.7241 0.0177
vn -0.6835 -0.7298 0.0148
vn -0.6858 -0.7276 0.0191
vn -0.7696 0.6295 0.1072
vn -0.6831 -0.7123 0.1611
vn -0.6320 0.7143 0.3006
vn -0.8200 0.5715 -0.0295
vn -0.0578 0.9956 -0.0731
vn -0.8164 -0.5775 -0.0024
vn -0.9998 -0.0182 0.0063
vn 0.0021 -0.9678 0.2519
vn 0.0027 -0.9688 0.2478
vn 0.0025 -0.9682 0.2501
vn -0.0036 -0.9960 0.0893
vn -0.0044 -0.9959 0.0898
vn -0.0040 -0.9960 0.0894
vn 0.0004 -0.9999 -0.0137
vn 0.0028 0.9981 -0.0623
vn 0.0027 0.9981 -0.0611
vn 0.0047 0.9915 -0.1303
vn -0.0012 1.0000 -0.0004
vn -0.0015 -0.9992 0.0410
vn -0.0017 -0.9991 0.0412
vn -0.0012 -1.0000 -0.0007
vn 0.0034 -1.0000 -0.0035
vn 1.0000 -0.0000 -0.0038
vn 0.0068 -0.9795 -0.2012
vn -0.0038 -0.9933 0.1152
vn -0.0038 -0.9934 0.1149
vn -0.0038 -0.9934 0.1150
vn -0.0037 -0.9934 0.1147
vn -0.9996 -0.0000 0.0275
vn -0.0000 -0.9961 -0.0878
vn -0.0000 0.9978 0.0670
vn -0.0000 -0.9961 -0.0886
vn -0.0000 0.9994 -0.0333
vn -0.0000 -0.9976 0.0690
vn -0.0000 0.9964 -0.0851
vn -0.0000 -0.9992 0.0399
vn -0.0000 -0.0000 -1.0000
vn -0.0000 0.9938 -0.1110
vn -0.0000 0.9998 0.0177
vn -0.0000 -0.9880 -0.1544
vn -0.0000 -0.9825 -0.1862
vn -0.0000 0.9825 -0.1862
vn -0.0000 -0.9725 -0.2327
vn -0.0000 0.9725 -0.2327
vn -0.0000 0.8990 0.4380
vn 0.6985 0.5724 0.4295
vn 0.9200 -0.0000 0.3919
vn -0.0000 -0.9366 0.3504
vn 0.7836 -0.5064 0.3599
vn -0.6985 0.5724 0.4295
vn -0.9200 -0.0000 0.3919
vn -0.7836 -0.5064 0.3599
vn 0.1248 0.9832 0.1329
vn 0.1247 0.9822 0.1408
vn 0.0576 0.9911 0.1201
vn 0.0357 0.9870 0.1567
vn -0.1248 0.9832 0.1329
vn -0.1247 0.9822 0.1408
vn -0.0576 0.9911 0.1201
vn -0.0357 0.9870 0.1567
vn -0.0024 -0.8773 0.4798
vn 0.0040 -0.8762 0.4819
vn -0.0000 -0.8757 0.4829
vn 0.0027 -0.8760 0.4823
vn 0.0068 -0.8765 0.4813
vn 0.0091 -0.8749 0.4843
vn 0.0024 -0.8773 0.4798
vn -0.0040 -0.8762 0.4819
vn -0.0027 -0.8760 0.4823
vn -0.0091 -0.8749 0.4843
vn -0.0068 -0.8765 0.4813
vt 0.500000 0.500000
vt 0.647853 0.500000
vt 0.687500 0.500000
vt 0.687500 0.750000
vt 0.312500 0.500000
vt 0.312500 0.750000
vt 0.750000 0.500000
vt 0.278435 0.750000
vt 0.562500 0.500000
vt 0.625000 0.812500
vt 0.375000 0.812500
vt 0.352147 0.500000
vt 0.375000 0.500000
vt 0.625000 0.750000
vt 0.375000 0.750000
vt 0.250000 0.500000
vt 0.625000 0.500000
vt 0.501162 0.500000
vt 0.502078 0.500000
vt 0.498950 0.500000
vt 0.617555 0.820166
vt 0.574162 0.812500
vt 0.260154 0.750000
vt 0.425838 0.812500
vt 0.250000 0.750000
vt 0.750000 0.750000
vt 0.739846 0.750000
vt 0.610110 0.812500
vt 0.712517 0.750000
vt 0.735803 0.750000
vt 0.297168 0.750000
vt 0.500000 0.750000
vt 0.562566 0.750000
vt 0.562500 0.750000
vt 0.375000 0.437500
vt 0.625000 0.437500
vt 0.254255 0.750000
vt 0.381138 0.497506
vt 0.376428 0.451299
vt 0.673411 0.499079
vt 0.622196 0.499354
s 0
usemtl Material.001
f 185/94/217 194/94/217 181/94/217
f 129/95/218 110/96/218 112/97/219
f 111/98/220 117/99/220 109/99/220
f 108/100/221 125/96/221 124/100/222
f 111/98/223 109/99/223 179/101/223
f 198/102/224 200/102/224 186/102/224
f 112/103/225 115/104/225 116/103/225
f 130/105/226 128/98/226 127/106/227
f 105/107/228 116/97/229 113/107/230
f 130/105/231 118/108/231 117/99/231
f 118/108/231 115/99/231 117/99/231
f 104/106/232 127/106/232 122/106/232
f 106/108/233 114/108/233 118/108/233
f 115/104/234 109/104/234 117/104/234
f 106/108/235 119/106/235 104/106/235
f 123/109/236 136/98/237 126/98/238
f 124/100/239 135/96/240 134/100/240
f 137/106/241 146/106/241 132/106/241
f 122/106/242 137/106/242 132/106/242
f 121/110/242 142/110/242 140/110/242
f 129/95/243 121/110/243 140/110/243
f 111/98/244 128/98/244 120/98/244
f 104/106/232 183/111/232 184/112/232
f 129/95/221 103/110/245 121/110/246
f 107/109/247 126/98/248 111/98/247
f 129/95/230 105/107/249 103/110/230
f 119/106/226 130/105/226 127/106/250
f 120/98/231 130/105/231 117/99/231
f 136/98/251 149/98/252 138/98/253
f 183/111/242 132/106/242 182/113/242
f 128/98/237 137/106/237 127/106/254
f 126/98/255 138/98/256 128/98/255
f 139/96/230 142/110/230 141/96/230
f 129/95/257 139/96/257 110/96/257
f 125/96/255 141/96/255 135/96/255
f 138/98/231 150/106/231 137/106/231
f 125/96/244 110/96/244 139/96/244
f 141/96/252 147/96/252 135/96/252
f 135/96/230 144/100/230 134/100/230
f 133/109/231 148/98/231 136/98/231
f 131/110/241 151/110/241 142/110/241
f 182/113/241 146/106/241 181/94/241
f 142/110/230 152/96/230 141/96/230
f 144/100/252 203/109/252 143/109/252
f 165/114/258 159/115/258 158/103/258
f 167/116/259 161/99/259 168/99/259
f 167/116/260 171/99/261 170/116/262
f 112/103/263 161/117/263 109/104/263
f 161/117/233 164/115/233 168/117/233
f 162/116/231 157/118/231 155/118/231
f 155/118/231 179/101/231 162/116/231
f 164/115/264 169/114/264 163/115/264
f 157/118/231 170/116/231 160/118/231
f 168/117/265 163/115/265 171/117/265
f 171/117/266 173/115/266 177/117/266
f 170/116/267 177/99/267 176/116/267
f 160/118/268 176/116/268 172/118/268
f 163/115/269 175/114/269 173/115/269
f 166/119/270 175/120/270 169/120/270
f 158/121/271 112/122/271 110/123/271
f 154/119/272 110/123/272 108/119/272
f 162/116/273 109/99/273 161/124/274
f 180/125/233 114/108/233 106/108/233
f 247/126/275 189/107/276 113/107/277 246/127/277
f 180/125/278 197/112/279 193/125/280
f 181/94/281 195/113/282 182/113/283
f 184/112/235 106/108/235 104/106/235
f 103/110/284 190/110/285 121/110/286
f 187/110/241 193/125/241 197/112/241
f 245/127/287 248/107/287 189/107/287
f 197/112/241 190/110/241 187/110/241
f 196/111/241 191/110/241 190/110/241
f 191/110/241 194/94/241 192/110/241
f 194/94/241 198/102/241 192/110/241
f 145/110/230 191/110/230 192/110/230
f 131/110/288 190/110/288 191/110/288
f 105/107/289 187/110/230 103/110/230
f 105/107/290 189/107/230 248/107/230 188/107/230
f 186/102/291 192/110/291 198/102/291
f 184/112/292 196/111/293 197/112/292
f 182/113/294 196/111/295 183/111/295
f 199/94/296 200/94/296 201/94/296
f 199/94/241 201/102/241 198/102/241
f 108/119/252 155/118/252 154/119/252
f 155/118/252 156/119/252 154/119/252
f 157/118/252 166/119/252 156/119/252
f 160/118/252 174/119/252 166/119/252
f 143/109/252 134/100/252 144/100/252
f 134/100/252 123/109/252 124/100/252
f 107/109/252 124/100/252 123/109/252
f 202/128/241 209/129/241 205/129/241
f 148/128/241 205/129/241 147/129/241
f 204/100/252 207/109/252 203/109/252
f 185/94/217 199/94/217 194/94/217
f 111/98/220 120/98/220 117/99/220
f 108/100/221 110/96/221 125/96/221
f 198/102/297 201/102/297 200/102/297
f 112/103/234 109/104/234 115/104/234
f 130/105/226 120/98/226 128/98/226
f 105/107/298 112/97/299 116/97/300
f 130/105/231 119/106/231 118/108/231
f 118/108/231 114/108/231 115/99/231
f 104/106/232 119/106/232 127/106/232
f 106/108/235 118/108/235 119/106/235
f 123/109/301 133/109/237 136/98/237
f 124/100/302 125/96/240 135/96/240
f 137/106/241 150/106/241 146/106/241
f 122/106/242 127/106/242 137/106/242
f 121/110/242 131/110/242 142/110/242
f 111/98/244 126/98/244 128/98/244
f 104/106/232 122/106/232 183/111/232
f 107/109/226 123/109/303 126/98/304
f 129/95/305 112/97/306 105/107/307
f 136/98/308 148/98/252 149/98/252
f 183/111/242 122/106/242 132/106/242
f 128/98/237 138/98/237 137/106/237
f 126/98/255 136/98/309 138/98/310
f 139/96/230 140/110/230 142/110/230
f 129/95/257 140/110/257 139/96/257
f 125/96/255 139/96/255 141/96/255
f 138/98/231 149/98/231 150/106/231
f 141/96/252 152/96/252 147/96/252
f 135/96/230 147/96/230 144/100/230
f 133/109/231 143/109/231 148/98/231
f 131/110/241 145/110/241 151/110/241
f 182/113/241 132/106/241 146/106/241
f 142/110/230 151/110/230 152/96/230
f 144/100/252 204/100/252 203/109/252
f 165/114/311 164/115/311 159/115/311
f 167/116/312 162/116/312 161/99/313
f 167/116/314 168/99/315 171/99/316
f 112/103/263 159/115/263 161/117/263
f 161/117/233 159/115/233 164/115/233
f 162/116/231 167/116/231 157/118/231
f 155/118/231 107/130/231 179/101/231
f 164/115/317 165/114/317 169/114/317
f 157/118/231 167/116/231 170/116/231
f 168/117/265 164/115/265 163/115/265
f 171/117/266 163/115/266 173/115/266
f 170/116/318 171/99/318 177/99/318
f 160/118/268 170/116/268 176/116/268
f 163/115/319 169/114/319 175/114/319
f 166/119/320 174/119/320 175/120/320
f 158/121/321 159/115/321 112/122/321
f 154/119/322 158/121/322 110/123/322
f 162/116/323 179/101/323 109/99/323
f 111/98/231 179/101/231 107/130/231
f 180/125/324 246/127/324 113/107/324 114/108/324
f 247/126/325 245/127/326 189/107/327
f 180/125/328 184/112/329 197/112/330
f 181/94/281 194/94/281 195/113/331
f 184/112/235 180/125/235 106/108/235
f 103/110/332 187/110/333 190/110/333
f 187/110/241 188/107/241 193/125/241
f 197/112/241 196/111/241 190/110/241
f 196/111/241 195/113/241 191/110/241
f 191/110/241 195/113/241 194/94/241
f 194/94/241 199/94/241 198/102/241
f 145/110/230 131/110/230 191/110/230
f 131/110/334 121/110/334 190/110/334
f 105/107/335 188/107/230 187/110/230
f 105/107/336 113/107/230 189/107/230
f 186/102/291 145/110/291 192/110/291
f 184/112/337 183/111/337 196/111/338
f 182/113/339 195/113/340 196/111/295
f 185/94/341 186/102/341 200/102/341
f 199/94/342 185/94/342 200/94/342
f 108/119/252 107/130/252 155/118/252
f 155/118/252 157/118/252 156/119/252
f 157/118/252 160/118/252 166/119/252
f 160/118/252 172/118/252 174/119/252
f 143/109/252 133/109/252 134/100/252
f 134/100/252 133/109/252 123/109/252
f 107/109/252 108/100/252 124/100/252
f 202/128/241 206/128/241 209/129/241
f 148/128/241 202/128/241 205/129/241
f 204/100/252 208/100/252 207/109/252
f 180/125/343 247/126/344 246/127/344
f 180/125/345 193/125/346 245/127/346 247/126/346
f 193/125/347 188/107/347 248/107/347 245/127/347
f 314/94/348 310/94/348 323/94/348
f 271/95/218 256/97/349 254/96/218
f 255/98/350 253/99/350 261/99/350
f 108/100/221 124/100/222 267/96/351
f 255/98/352 308/101/352 253/99/352
f 327/102/353 315/102/353 329/102/353
f 256/103/354 260/103/354 259/104/354
f 272/105/226 269/106/355 270/98/226
f 251/107/356 257/107/230 260/97/357
f 272/105/231 261/99/231 262/108/231
f 262/108/231 261/99/231 259/99/231
f 250/106/358 266/106/358 269/106/358
f 252/108/359 262/108/359 258/108/359
f 259/104/360 261/104/360 253/104/360
f 252/108/361 250/106/361 263/106/361
f 123/109/362 268/98/237 276/98/237
f 124/100/363 134/100/240 275/96/240
f 277/106/252 274/106/252 284/106/252
f 266/106/364 274/106/364 277/106/364
f 265/110/364 280/110/364 282/110/364
f 271/95/365 280/110/365 265/110/365
f 255/98/366 264/98/366 270/98/366
f 250/106/358 313/112/358 312/111/358
f 271/95/221 265/110/367 249/110/368
f 107/109/369 255/98/369 268/98/369
f 271/95/230 249/110/230 251/107/370
f 263/106/226 269/106/371 272/105/226
f 264/98/231 261/99/231 272/105/231
f 276/98/372 278/98/373 287/98/241
f 312/111/364 311/113/364 274/106/364
f 270/98/237 269/106/254 277/106/237
f 268/98/374 270/98/374 278/98/375
f 279/96/230 281/96/230 282/110/230
f 271/95/257 254/96/257 279/96/257
f 267/96/374 275/96/374 281/96/374
f 278/98/231 277/106/231 288/106/231
f 267/96/366 279/96/366 254/96/366
f 281/96/241 275/96/241 285/96/241
f 275/96/230 134/100/230 144/100/230
f 133/109/231 276/98/231 286/98/231
f 273/110/252 282/110/252 289/110/252
f 311/113/252 310/94/252 284/106/252
f 282/110/230 281/96/230 290/96/230
f 298/114/376 292/103/376 293/115/376
f 299/116/377 300/99/377 294/99/377
f 299/116/378 302/116/379 303/99/380
f 256/103/381 253/104/381 294/117/381
f 294/117/359 300/117/359 297/115/359
f 295/116/231 155/118/231 157/118/231
f 155/118/231 295/116/231 308/101/231
f 297/115/382 296/115/382 301/114/382
f 157/118/231 160/118/231 302/116/231
f 300/117/383 303/117/383 296/115/383
f 303/117/384 307/117/384 304/115/384
f 302/116/385 306/116/385 307/99/385
f 160/118/268 172/118/268 306/116/268
f 296/115/386 304/115/386 305/114/386
f 166/119/387 301/120/387 305/120/387
f 292/121/388 254/123/388 256/122/388
f 154/119/272 108/119/272 254/123/272
f 295/116/389 294/124/390 253/99/389
f 309/125/359 252/108/359 258/108/359
f 372/126/391 371/127/392 257/107/392 318/107/393
f 309/125/394 322/125/395 326/112/396
f 310/94/397 311/113/398 324/113/399
f 313/112/361 250/106/361 252/108/361
f 249/110/400 265/110/401 319/110/402
f 316/110/252 326/112/252 322/125/252
f 370/127/403 318/107/403 373/107/403
f 326/112/252 316/110/252 319/110/252
f 325/111/252 319/110/252 320/110/252
f 320/110/252 321/110/252 323/94/252
f 323/94/252 321/110/252 327/102/252
f 283/110/230 321/110/230 320/110/230
f 273/110/404 320/110/404 319/110/404
f 251/107/405 249/110/230 316/110/230
f 251/107/406 317/107/230 373/107/230 318/107/230
f 315/102/407 327/102/407 321/110/407
f 313/112/408 326/112/408 325/111/409
f 311/113/410 312/111/411 325/111/411
f 328/94/412 330/94/412 329/94/412
f 328/94/252 327/102/252 330/102/252
f 331/128/252 332/129/252 334/129/252
f 286/128/252 285/129/252 332/129/252
f 314/94/348 323/94/348 328/94/348
f 255/98/350 261/99/350 264/98/350
f 108/100/221 267/96/413 254/96/221
f 327/102/414 329/102/414 330/102/414
f 256/103/360 259/104/360 253/104/360
f 272/105/226 270/98/226 264/98/226
f 251/107/415 260/97/416 256/97/417
f 272/105/231 262/108/231 263/106/231
f 262/108/231 259/99/231 258/108/231
f 250/106/358 269/106/358 263/106/358
f 252/108/361 263/106/361 262/108/361
f 123/109/418 276/98/237 133/109/237
f 124/100/419 275/96/240 267/96/420
f 277/106/252 284/106/252 288/106/252
f 266/106/364 277/106/364 269/106/364
f 265/110/364 282/110/364 273/110/364
f 255/98/366 270/98/366 268/98/366
f 250/106/358 312/111/358 266/106/358
f 107/109/226 268/98/226 123/109/303
f 271/95/421 251/107/422 256/97/423
f 276/98/424 287/98/241 286/98/241
f 312/111/364 274/106/364 266/106/364
f 270/98/237 277/106/237 278/98/237
f 268/98/374 278/98/425 276/98/426
f 279/96/230 282/110/230 280/110/230
f 271/95/257 279/96/257 280/110/257
f 267/96/374 281/96/374 279/96/374
f 278/98/231 288/106/231 287/98/231
f 281/96/241 285/96/241 290/96/241
f 275/96/230 144/100/230 285/96/230
f 133/109/231 286/98/231 143/109/231
f 273/110/252 289/110/252 283/110/252
f 311/113/252 284/106/252 274/106/252
f 282/110/230 290/96/230 289/110/230
f 298/114/427 293/115/427 297/115/427
f 299/116/428 294/99/429 295/116/428
f 299/116/430 303/99/431 300/99/432
f 256/103/381 294/117/381 293/115/381
f 294/117/359 297/115/359 293/115/359
f 295/116/231 157/118/231 299/116/231
f 155/118/231 308/101/231 107/130/231
f 297/115/433 301/114/433 298/114/433
f 157/118/231 302/116/231 299/116/231
f 300/117/383 296/115/383 297/115/383
f 303/117/384 304/115/384 296/115/384
f 302/116/434 307/99/434 303/99/434
f 160/118/268 306/116/268 302/116/268
f 296/115/435 305/114/435 301/114/435
f 166/119/320 305/120/320 174/119/320
f 292/121/436 256/122/436 293/115/436
f 154/119/437 254/123/437 292/121/437
f 295/116/438 253/99/438 308/101/438
f 255/98/231 107/130/231 308/101/231
f 309/125/439 258/108/439 257/107/439 371/127/439
f 372/126/440 318/107/441 370/127/442
f 309/125/443 326/112/444 313/112/445
f 310/94/397 324/113/446 323/94/397
f 313/112/361 252/108/361 309/125/361
f 249/110/447 319/110/448 316/110/448
f 316/110/252 322/125/252 317/107/252
f 326/112/252 319/110/252 325/111/252
f 325/111/252 320/110/252 324/113/252
f 320/110/252 323/94/252 324/113/252
f 323/94/252 327/102/252 328/94/252
f 283/110/230 320/110/230 273/110/230
f 273/110/449 319/110/449 265/110/449
f 251/107/450 316/110/230 317/107/230
f 251/107/336 318/107/230 257/107/230
f 315/102/407 321/110/407 283/110/407
f 313/112/451 325/111/452 312/111/451
f 311/113/453 325/111/411 324/113/454
f 314/94/455 329/102/455 315/102/455
f 328/94/456 329/94/456 314/94/456
f 331/128/252 334/129/252 333/128/252
f 286/128/252 332/129/252 331/128/252
f 309/125/457 371/127/458 372/126/458
f 309/125/459 372/126/460 370/127/460 322/125/460
f 322/125/461 370/127/461 373/107/461 317/107/461
usemtl Material.020
f 186/102/241 185/94/241 153/106/241
f 148/98/252 218/98/252 149/98/252
f 147/129/252 217/128/252 148/128/252
f 149/98/462 219/106/462 150/106/462
f 152/96/252 216/96/252 147/96/252
f 211/131/463 232/132/463 213/132/463
f 214/110/241 227/110/241 220/110/241
f 218/98/464 226/106/464 219/106/464
f 215/106/241 226/106/241 153/106/241
f 146/106/241 219/106/241 215/106/241
f 181/94/241 215/106/241 185/94/241
f 151/110/241 214/110/241 220/110/241
f 151/110/465 221/96/465 152/96/465
f 217/98/252 225/98/252 218/98/252
f 212/133/466 229/134/466 210/134/466
f 217/128/252 223/129/252 224/128/252
f 220/110/467 228/96/467 221/96/467
f 213/132/241 231/133/241 212/133/241
f 216/96/252 228/96/252 223/96/252
f 231/133/468 242/134/468 229/134/468
f 229/134/469 153/106/469 230/131/469
f 232/132/469 223/96/469 231/133/469
f 229/134/468 237/110/468 222/110/468
f 227/110/470 239/96/470 228/96/470
f 153/106/471 243/131/471 230/131/471
f 223/96/252 239/96/252 240/96/252
f 232/132/471 233/128/471 224/128/471
f 211/131/252 229/134/252 230/131/252
f 243/131/469 235/106/469 236/106/469
f 241/133/469 240/96/469 239/96/469
f 237/110/469 242/134/469 238/110/469
f 241/133/469 238/110/469 242/134/469
f 233/128/469 244/132/469 234/98/469
f 243/131/469 234/98/469 244/132/469
f 224/98/252 234/98/252 225/98/252
f 153/106/241 236/106/241 235/106/241
f 225/98/472 236/106/472 226/106/472
f 223/96/468 241/133/468 231/133/468
f 222/110/241 238/110/241 227/110/241
f 230/131/471 244/132/471 232/132/471
f 214/110/241 145/110/241 186/102/241
f 143/109/473 202/98/473 148/98/473
f 147/96/474 204/100/474 144/100/474
f 207/109/469 209/129/469 206/128/469
f 203/109/475 206/98/475 202/98/475
f 205/96/476 208/100/476 204/100/476
f 148/98/252 217/98/252 218/98/252
f 147/129/252 216/129/252 217/128/252
f 149/98/462 218/98/462 219/106/462
f 152/96/252 221/96/252 216/96/252
f 211/131/463 230/131/463 232/132/463
f 214/110/241 222/110/241 227/110/241
f 218/98/464 225/98/464 226/106/464
f 215/106/241 219/106/241 226/106/241
f 146/106/241 150/106/241 219/106/241
f 181/94/241 146/106/241 215/106/241
f 151/110/241 145/110/241 214/110/241
f 151/110/465 220/110/465 221/96/465
f 217/98/252 224/98/252 225/98/252
f 212/133/466 231/133/466 229/134/466
f 217/128/252 216/129/252 223/129/252
f 220/110/467 227/110/467 228/96/467
f 213/132/241 232/132/241 231/133/241
f 216/96/252 221/96/252 228/96/252
f 231/133/468 241/133/468 242/134/468
f 229/134/469 222/110/469 153/106/469
f 232/132/469 224/128/469 223/96/469
f 229/134/468 242/134/468 237/110/468
f 227/110/470 238/110/470 239/96/470
f 153/106/471 235/106/471 243/131/471
f 223/96/252 228/96/252 239/96/252
f 232/132/471 244/132/471 233/128/471
f 222/110/241 214/110/241 186/102/241
f 185/94/241 215/106/241 153/106/241
f 222/110/241 186/102/241 153/106/241
f 211/131/252 210/134/252 229/134/252
f 241/133/469 239/96/469 238/110/469
f 243/131/469 236/106/469 234/98/469
f 224/98/252 233/98/252 234/98/252
f 153/106/241 226/106/241 236/106/241
f 225/98/472 234/98/472 236/106/472
f 223/96/468 240/96/468 241/133/468
f 222/110/241 237/110/241 238/110/241
f 230/131/471 243/131/471 244/132/471
f 143/109/473 203/109/473 202/98/473
f 147/96/474 205/96/474 204/100/474
f 207/109/469 208/100/469 209/129/469
f 203/109/475 207/109/475 206/98/475
f 205/96/476 209/96/476 208/100/476
f 315/102/252 291/106/252 314/94/252
f 286/98/241 287/98/241 343/98/241
f 285/129/241 286/128/241 342/128/241
f 287/98/462 288/106/462 344/106/462
f 290/96/241 285/96/241 341/96/241
f 336/131/463 338/132/463 357/132/463
f 339/110/252 345/110/252 352/110/252
f 343/98/464 344/106/464 351/106/464
f 340/106/252 291/106/252 351/106/252
f 284/106/252 340/106/252 344/106/252
f 310/94/252 314/94/252 340/106/252
f 289/110/252 345/110/252 339/110/252
f 289/110/465 290/96/465 346/96/465
f 342/98/241 343/98/241 350/98/241
f 337/133/466 335/134/466 354/134/466
f 342/128/241 349/128/241 348/129/241
f 345/110/467 346/96/467 353/96/467
f 338/132/252 337/133/252 356/133/252
f 341/96/241 348/96/241 353/96/241
f 356/133/468 354/134/468 367/134/468
f 354/134/469 355/131/469 291/106/469
f 357/132/469 356/133/469 348/96/469
f 354/134/468 347/110/468 362/110/468
f 352/110/470 353/96/470 364/96/470
f 291/106/471 355/131/471 368/131/471
f 348/96/241 365/96/241 364/96/241
f 357/132/471 349/128/471 358/128/471
f 336/131/241 355/131/241 354/134/241
f 368/131/469 361/106/469 360/106/469
f 366/133/469 364/96/469 365/96/469
f 362/110/469 363/110/469 367/134/469
f 366/133/469 367/134/469 363/110/469
f 358/128/469 359/98/469 369/132/469
f 368/131/469 369/132/469 359/98/469
f 349/98/241 350/98/241 359/98/241
f 291/106/252 360/106/252 361/106/252
f 350/98/472 351/106/472 361/106/472
f 348/96/468 356/133/468 366/133/468
f 347/110/252 352/110/252 363/110/252
f 355/131/471 357/132/471 369/132/471
f 339/110/252 315/102/252 283/110/252
f 143/109/473 286/98/473 331/98/473
f 285/96/474 144/100/474 204/100/474
f 207/109/469 333/128/469 334/129/469
f 203/109/475 331/98/475 333/98/475
f 332/96/476 204/100/476 208/100/476
f 286/98/241 343/98/241 342/98/241
f 285/129/241 342/128/241 341/129/241
f 287/98/462 344/106/462 343/98/462
f 290/96/241 341/96/241 346/96/241
f 336/131/463 357/132/463 355/131/463
f 339/110/252 352/110/252 347/110/252
f 343/98/464 351/106/464 350/98/464
f 340/106/252 351/106/252 344/106/252
f 284/106/252 344/106/252 288/106/252
f 310/94/252 340/106/252 284/106/252
f 289/110/252 339/110/252 283/110/252
f 289/110/465 346/96/465 345/110/465
f 342/98/241 350/98/241 349/98/241
f 337/133/466 354/134/466 356/133/466
f 342/128/241 348/129/241 341/129/241
f 345/110/467 353/96/467 352/110/467
f 338/132/252 356/133/252 357/132/252
f 341/96/241 353/96/241 346/96/241
f 356/133/468 367/134/468 366/133/468
f 354/134/469 291/106/469 347/110/469
f 357/132/469 348/96/469 349/128/469
f 354/134/468 362/110/468 367/134/468
f 352/110/470 364/96/470 363/110/470
f 291/106/471 368/131/471 360/106/471
f 348/96/241 364/96/241 353/96/241
f 357/132/471 358/128/471 369/132/471
f 347/110/252 315/102/252 339/110/252
f 314/94/252 291/106/252 340/106/252
f 347/110/252 291/106/252 315/102/252
f 336/131/241 354/134/241 335/134/241
f 366/133/469 363/110/469 364/96/469
f 368/131/469 359/98/469 361/106/469
f 349/98/241 359/98/241 358/98/241
f 291/106/252 361/106/252 351/106/252
f 350/98/472 361/106/472 359/98/472
f 348/96/468 366/133/468 365/96/468
f 347/110/252 363/110/252 362/110/252
f 355/131/471 369/132/471 368/131/471
f 143/109/473 331/98/473 203/109/473
f 285/96/474 204/100/474 332/96/474
f 207/109/469 334/129/469 208/100/469
f 203/109/475 333/98/475 207/109/475
f 332/96/476 208/100/476 334/96/476
usemtl engine
f 211/131/469 212/133/469 210/134/469
f 211/131/469 213/132/469 212/133/469
f 336/131/469 335/134/469 337/133/469
f 336/131/469 337/133/469 338/132/469
usemtl Material.021
f 178/120/252 174/119/252 172/118/252
f 175/120/477 174/119/477 178/120/477
f 173/115/478 175/114/478 178/115/478
f 177/117/479 173/115/479 178/117/479
f 172/118/480 176/116/480 178/118/480
f 176/116/481 177/99/481 178/116/481
f 305/120/477 178/120/477 174/119/477
f 304/115/482 178/115/482 305/114/482
f 307/117/483 178/117/483 304/115/483
f 172/118/480 178/118/480 306/116/480
f 306/116/484 178/116/484 307/99/484
usemtl Material.022
f 158/120/485 156/119/485 165/120/485
f 156/119/486 169/120/486 165/120/486
f 158/120/487 154/119/487 156/119/487
f 156/119/488 166/119/488 169/120/488
f 292/120/489 298/120/489 156/119/489
f 156/119/490 298/120/490 301/120/490
f 292/120/491 156/119/491 154/119/491
f 156/119/492 301/120/492 166/119/492
usemtl Material.023
f 113/107/493 115/104/494 114/108/495
f 113/107/496 116/103/497 115/104/498
f 257/107/499 258/108/495 259/104/500
f 257/107/501 259/104/502 260/103/503
o Cube.004
v 0.240238 0.086676 0.603474
v 0.240238 0.106806 0.603474
v 0.240238 0.086676 0.272852
v 0.240238 0.106806 0.272852
v 0.567639 0.214245 0.126863
v 0.567639 0.206237 0.126863
v 0.240238 0.096740 0.637174
v 0.240238 0.096740 0.229396
v 0.567639 0.210241 0.083407
v 0.591938 0.215721 0.219464
v 0.591938 0.222435 0.219464
v 0.591938 0.215721 0.160825
v 0.591938 0.222435 0.160825
v 0.591938 0.219078 0.117369
v 0.591938 0.219078 0.253163
v -0.240238 0.086676 0.603474
v -0.240238 0.106806 0.603474
v -0.240238 0.086676 0.272852
v -0.240238 0.106806 0.272852
v -0.567639 0.214245 0.126863
v -0.567639 0.206237 0.126863
v -0.240238 0.096740 0.637174
v -0.240238 0.096740 0.229396
v -0.567639 0.210241 0.083407
v -0.591938 0.215721 0.219464
v -0.591938 0.222435 0.219464
v -0.591938 0.215721 0.160825
v -0.591938 0.222435 0.160825
v -0.591938 0.219078 0.117369
v -0.591938 0.219078 0.253163
vn -1.0000 -0.0000 -0.0000
vn -0.3118 0.9501 -0.0000
vn -0.4015 0.8922 -0.2067
vn 0.3430 -0.9393 -0.0000
vn 0.3071 -0.9477 -0.0873
vn 0.2307 -0.9479 -0.2195
vn -0.2278 0.9696 -0.0893
vn 0.4403 -0.8941 -0.0824
vn 1.0000 -0.0000 -0.0000
vn -0.3451 0.9346 -0.0861
vn 0.3118 0.9501 -0.0000
vn 0.4015 0.8922 -0.2067
vn -0.3430 -0.9393 -0.0000
vn -0.3071 -0.9477 -0.0873
vn -0.2307 -0.9479 -0.2195
vn 0.2278 0.9696 -0.0893
vn -0.4403 -0.8941 -0.0824
vn 0.3451 0.9346 -0.0861
vn 0.3488 -0.9372 0.0045
vn -0.3194 0.9476 -0.0000
vn 0.4449 -0.8929 -0.0690
vn -0.2227 0.9720 -0.0751
vn 0.3636 -0.9316 -0.0000
vn -0.3139 0.9495 -0.0016
vn -0.3488 -0.9372 0.0045
vn 0.3194 0.9476 -0.0000
vn -0.4449 -0.8929 -0.0690
vn 0.2227 0.9720 -0.0751
vn -0.3636 -0.9316 -0.0000
vn 0.3139 0.9495 -0.0016
vn -0.0208 0.9580 0.2861
vn 0.4278 -0.8994 0.0896
vn -0.2139 0.9721 0.0968
vn 0.5425 -0.8049 0.2404
vn 0.0208 0.9580 0.2861
vn -0.4278 -0.8994 0.0896
vn 0.2139 0.9721 0.0968
vn -0.5425 -0.8049 0.2404
vt 0.500000 0.000000
vt 0.625000 0.250000
vt 0.500000 0.250000
vt 0.690614 0.500000
vt 0.842784 0.500000
vt 0.690614 0.750000
vt 0.500000 0.282216
vt 0.625000 0.282216
vt 0.500000 0.434386
vt 0.157216 0.500000
vt 0.309386 0.500000
vt 0.157216 0.750000
vt 0.375000 0.434386
vt 0.375000 0.282216
vt 0.375000 0.250000
vt 0.375000 0.000000
vt 0.625000 0.000000
vt 0.625000 0.434386
vt 0.500000 0.500000
vt 0.625000 0.500000
vt 0.625000 0.750000
vt 0.500000 0.750000
vt 0.375000 0.500000
vt 0.375000 0.750000
vt 0.309386 0.750000
vt 0.625000 0.815614
vt 0.500000 0.815614
vt 0.375000 0.815614
s 0
usemtl Material.017
f 380/135/504 377/136/504 381/137/504
f 378/138/505 377/139/505 375/140/505
f 381/141/506 377/142/506 382/143/506
f 376/144/507 379/145/507 374/146/507
f 382/143/508 379/147/508 376/148/508
f 380/135/504 376/149/504 374/150/504
f 380/135/504 375/151/504 377/136/504
f 381/141/509 382/143/509 376/148/509
f 380/135/504 381/137/504 376/149/504
f 378/152/510 387/153/510 382/143/510
f 379/147/511 382/143/511 387/153/511
f 386/154/512 384/155/512 388/156/512
f 385/157/512 387/153/512 388/156/512
f 377/142/513 378/152/513 382/143/513
f 395/135/512 396/137/512 392/136/512
f 393/138/514 390/140/514 392/139/514
f 396/141/515 397/143/515 392/142/515
f 391/144/516 389/146/516 394/145/516
f 397/143/517 391/148/517 394/147/517
f 395/135/512 389/150/512 391/149/512
f 395/135/512 392/136/512 390/151/512
f 396/141/518 391/148/518 397/143/518
f 395/135/512 391/149/512 396/137/512
f 393/152/519 397/143/519 402/153/519
f 394/147/520 402/153/520 397/143/520
f 401/154/504 403/156/504 399/155/504
f 400/157/504 403/156/504 402/153/504
f 392/142/521 397/143/521 393/152/521
usemtl Material.024
f 379/145/522 383/158/522 374/159/522
f 378/138/523 384/155/523 386/154/523
f 379/147/524 387/153/524 385/157/524
f 378/152/525 386/154/525 387/153/525
f 379/145/526 385/157/526 383/158/526
f 378/138/527 375/140/527 384/155/527
f 394/145/528 389/159/528 398/158/528
f 393/138/529 401/154/529 399/155/529
f 394/147/530 400/157/530 402/153/530
f 393/152/531 402/153/531 401/154/531
f 394/145/532 398/158/532 400/157/532
f 393/138/533 399/155/533 390/140/533
usemtl Material.025
f 386/154/512 388/156/512 387/153/512
f 388/156/534 375/160/534 380/161/534
f 388/156/535 374/162/535 383/158/535
f 385/157/512 388/156/512 383/158/512
f 388/156/536 384/155/536 375/160/536
f 388/156/537 380/161/537 374/162/537
f 401/154/504 402/153/504 403/156/504
f 403/156/538 395/161/538 390/160/538
f 403/156/539 398/158/539 389/162/539
f 400/157/504 398/158/504 403/156/504
f 403/156/540 390/160/540 399/155/540
f 403/156/541 389/162/541 395/161/541
