# Blender 5.1.1
# www.blender.org
mtllib sutype.mtl
o Cube.002
v 0.302155 0.026240 -0.674936
v 0.302155 -0.024048 -0.674936
v 0.280208 0.026240 0.367005
v 0.280208 -0.024048 0.367005
v 0.302155 0.001096 -0.674936
v 0.280208 0.001096 0.367005
v 0.000000 -0.055184 -0.674936
v 0.000000 0.108716 0.367005
v 0.000000 -0.055184 0.367005
v 0.000000 0.065427 -0.674936
v 0.099772 0.001096 0.894295
v 0.092508 -0.024048 0.367005
v 0.065352 0.026240 -0.674936
v 0.187874 -0.024047 0.621484
v 0.065352 -0.024048 -0.674936
v 0.092508 0.026240 0.367005
v 0.187874 0.026240 0.621484
v 0.302155 0.026240 -0.253813
v 0.302155 -0.024048 -0.253813
v 0.302155 0.001096 -0.253813
v 0.000000 -0.055184 -0.253813
v 0.000000 0.065427 -0.253813
v 0.065352 0.026240 -0.253813
v 0.065352 -0.024048 -0.253813
v 0.302155 0.001096 -1.258532
v 0.000000 -0.055184 -1.088476
v 0.000000 0.065427 -1.088476
v 0.065352 0.001096 -1.088476
v 0.187874 0.001096 0.621484
v 0.000000 0.120829 0.621484
v 0.000000 -0.055184 0.621484
v 0.000000 0.114076 1.033199
v 0.099772 -0.024047 0.621484
v 0.099772 0.026240 0.621484
v 0.000000 -0.073296 1.033199
v 0.000000 0.126238 0.894295
v 0.000000 -0.069243 0.894295
v 0.098501 0.001096 1.033199
v 0.087038 0.001096 1.240652
v 0.000000 -0.058100 1.240652
v 0.000000 0.079385 1.240652
v 0.000000 0.001096 1.614319
v 0.032675 -0.055184 -0.674936
v 0.046254 0.108716 0.367005
v 0.046254 -0.055184 0.367005
v 0.032675 0.065427 -0.674936
v 0.032675 -0.055184 -0.253813
v 0.032675 0.065427 -0.253813
v 0.032675 -0.055184 -1.088476
v 0.032675 0.065427 -1.088476
v 0.049885 0.120829 0.621484
v 0.049885 -0.055184 0.621484
v 0.049250 -0.073296 1.033199
v 0.049250 0.114076 1.033199
v 0.049885 -0.069243 0.894295
v 0.049885 0.126238 0.894295
v 0.043519 -0.058100 1.240652
v 0.043519 0.079385 1.240652
v 0.257126 -0.024048 -0.674936
v 0.254146 -0.024048 0.367005
v 0.257126 -0.024048 -0.253813
v 0.257126 0.001096 -1.088476
v 0.107490 -0.024048 -0.674936
v 0.107490 -0.024048 -0.253813
v 0.107490 -0.024048 0.367005
v 0.107490 0.001096 -1.088476
v 0.257126 0.026240 -0.674936
v 0.257126 0.026240 -0.253813
v 0.257126 0.026240 0.367005
v 0.107490 0.026240 -0.253813
v 0.107490 0.026240 -0.674936
v 0.107490 0.026240 0.367005
v 0.107490 -0.141873 0.100634
v 0.254146 -0.141873 0.100634
v 0.257126 -0.141873 -0.253813
v 0.257126 -0.121614 -0.674936
v 0.257126 -0.106420 -1.088476
v 0.107490 -0.121614 -0.674936
v 0.107490 -0.141873 -0.253813
v 0.107490 -0.106420 -1.088476
v 0.107490 0.087504 -1.088476
v 0.257126 0.087504 -1.088476
v 0.107490 0.077374 -0.674936
v 0.257126 0.077374 -0.674936
v 0.107490 0.077374 -0.611632
v 0.257126 0.077374 -0.611632
v 0.257126 0.000278 -1.201525
v 0.107490 0.000278 -1.201525
v 0.257126 -0.097541 -1.201525
v 0.257126 0.078892 -1.201525
v 0.111871 -0.068890 -1.328695
v 0.107490 -0.097541 -1.201525
v 0.107490 0.078892 -1.201525
v 0.111871 0.050526 -1.328695
v 0.252744 0.050526 -1.328695
v 0.252744 -0.068890 -1.328695
v 0.023862 -0.038942 -1.238383
v 0.000000 -0.038942 -1.238383
v 0.000000 0.048354 -1.238383
v 0.000000 0.002122 -1.364683
v 0.023862 0.048354 -1.238383
v 0.047726 0.001372 -1.238383
v 0.015608 -0.023729 -1.301269
v 0.000000 -0.023729 -1.301269
v 0.000000 0.032363 -1.301269
v 0.015608 0.032363 -1.301269
v 0.031218 0.001632 -1.301269
v 0.252744 -0.083184 -1.328695
v 0.111871 -0.083184 -1.328695
v 0.111871 0.064822 -1.328695
v 0.252744 0.064822 -1.328695
v 0.232101 -0.076505 -1.479428
v 0.132514 -0.076505 -1.479428
v 0.132514 0.058142 -1.479428
v 0.232101 0.058142 -1.479428
v 0.232101 -0.063500 -1.479428
v 0.132514 -0.063500 -1.479428
v 0.132514 0.045137 -1.479428
v 0.232101 0.045137 -1.479428
v -0.302155 0.026240 -0.674936
v -0.302155 -0.024048 -0.674936
v -0.280208 0.026240 0.367005
v -0.280208 -0.024048 0.367005
v -0.302155 0.001096 -0.674936
v -0.280208 0.001096 0.367005
v -0.099772 0.001096 0.894295
v -0.092508 -0.024048 0.367005
v -0.065352 0.026240 -0.674936
v -0.187874 -0.024047 0.621484
v -0.065352 -0.024048 -0.674936
v -0.092508 0.026240 0.367005
v -0.187874 0.026240 0.621484
v -0.302155 0.026240 -0.253813
v -0.302155 -0.024048 -0.253813
v -0.302155 0.001096 -0.253813
v -0.065352 0.026240 -0.253813
v -0.065352 -0.024048 -0.253813
v -0.302155 0.001096 -1.258532
v -0.065352 0.001096 -1.088476
v -0.187874 0.001096 0.621484
v -0.099772 -0.024047 0.621484
v -0.099772 0.026240 0.621484
v -0.098501 0.001096 1.033199
v -0.087038 0.001096 1.240652
v -0.032675 -0.055184 -0.674936
v -0.046254 0.108716 0.367005
v -0.046254 -0.055184 0.367005
v -0.032675 0.065427 -0.674936
v -0.032675 -0.055184 -0.253813
v -0.032675 0.065427 -0.253813
v -0.032675 -0.055184 -1.088476
v -0.032675 0.065427 -1.088476
v -0.049885 0.120829 0.621484
v -0.049885 -0.055184 0.621484
v -0.049250 -0.073296 1.033199
v -0.049250 0.114076 1.033199
v -0.049885 -0.069243 0.894295
v -0.049885 0.126238 0.894295
v -0.043519 -0.058100 1.240652
v -0.043519 0.079385 1.240652
v -0.257126 -0.024048 -0.674936
v -0.254146 -0.024048 0.367005
v -0.257126 -0.024048 -0.253813
v -0.257126 0.001096 -1.088476
v -0.107490 -0.024048 -0.674936
v -0.107490 -0.024048 -0.253813
v -0.107490 -0.024048 0.367005
v -0.107490 0.001096 -1.088476
v -0.257126 0.026240 -0.674936
v -0.257126 0.026240 -0.253813
v -0.257126 0.026240 0.367005
v -0.107490 0.026240 -0.253813
v -0.107490 0.026240 -0.674936
v -0.107490 0.026240 0.367005
v -0.107490 -0.141873 0.100634
v -0.254146 -0.141873 0.100634
v -0.257126 -0.141873 -0.253813
v -0.257126 -0.121614 -0.674936
v -0.257126 -0.106420 -1.088476
v -0.107490 -0.121614 -0.674936
v -0.107490 -0.141873 -0.253813
v -0.107490 -0.106420 -1.088476
v -0.107490 0.087504 -1.088476
v -0.257126 0.087504 -1.088476
v -0.107490 0.077374 -0.674936
v -0.257126 0.077374 -0.674936
v -0.107490 0.077374 -0.611632
v -0.257126 0.077374 -0.611632
v -0.257126 0.000278 -1.201525
v -0.107490 0.000278 -1.201525
v -0.257126 -0.097541 -1.201525
v -0.257126 0.078892 -1.201525
v -0.111871 -0.068890 -1.328695
v -0.107490 -0.097541 -1.201525
v -0.107490 0.078892 -1.201525
v -0.111871 0.050526 -1.328695
v -0.252744 0.050526 -1.328695
v -0.252744 -0.068890 -1.328695
v -0.023862 -0.038942 -1.238383
v -0.023862 0.048354 -1.238383
v -0.047726 0.001372 -1.238383
v -0.015608 -0.023729 -1.301269
v -0.015608 0.032363 -1.301269
v -0.031218 0.001632 -1.301269
v -0.252744 -0.083184 -1.328695
v -0.111871 -0.083184 -1.328695
v -0.111871 0.064822 -1.328695
v -0.252744 0.064822 -1.328695
v -0.232101 -0.076505 -1.479428
v -0.132514 -0.076505 -1.479428
v -0.132514 0.058142 -1.479428
v -0.232101 0.058142 -1.479428
v -0.232101 -0.063500 -1.479428
v -0.132514 -0.063500 -1.479428
v -0.132514 0.045137 -1.479428
v -0.232101 0.045137 -1.479428
vn -0.0000 -1.0000 -0.0000
vn 0.9994 -0.0000 0.0353
vn -0.0000 0.9989 -0.0475
vn -0.1605 -0.9861 -0.0425
vn 0.9400 -0.0000 0.3411
vn -0.0000 0.9976 -0.0696
vn -0.0000 1.0000 -0.0000
vn -0.0000 0.9982 -0.0607
vn 0.6898 -0.7239 -0.0151
vn 0.6898 -0.7240 -0.0000
vn 1.0000 -0.0000 -0.0000
vn 0.7680 0.6404 -0.0000
vn -0.0000 -0.9958 0.0918
vn -0.0000 0.9958 0.0918
vn 0.5290 -0.8475 -0.0437
vn 0.9516 -0.0000 0.3073
vn 0.5584 -0.8295 -0.0080
vn 0.8338 -0.5520 -0.0123
vn 0.8322 -0.5509 0.0633
vn 0.8570 -0.5051 -0.1023
vn 0.8593 -0.5007 -0.1041
vn 0.8561 -0.5067 -0.1016
vn -0.0000 -0.9942 -0.1077
vn -0.0000 -0.9973 0.0731
vn 0.8730 0.4853 0.0482
vn 0.9284 0.3701 0.0341
vn 0.9284 0.3699 0.0342
vn 0.9283 0.3700 0.0363
vn -0.0000 -0.9996 -0.0292
vn 0.9167 0.3996 0.0084
vn -0.0000 -0.9987 -0.0515
vn 0.8644 -0.5019 -0.0305
vn 0.7676 0.6401 -0.0336
vn 0.8719 0.4890 -0.0249
vn -0.0000 -0.9993 -0.0367
vn -0.0000 -0.9982 -0.0607
vn -1.0000 -0.0000 -0.0000
vn 1.0000 -0.0069 0.0019
vn 1.0000 -0.0028 0.0075
vn 1.0000 -0.0000 0.0043
vn -0.0000 0.9899 0.1415
vn -0.1605 0.9861 -0.0425
vn -0.0000 -0.9988 -0.0481
vn -0.0000 0.9997 0.0245
vn -0.0000 0.9971 -0.0760
vn -0.0000 -0.9969 -0.0783
vn -0.0000 0.9692 -0.2464
vn -0.0000 -0.9720 -0.2351
vn 0.8307 -0.5113 -0.2202
vn -0.0000 0.9936 -0.1132
vn 0.8868 0.4504 -0.1034
vn -0.0000 -0.9260 -0.3775
vn 0.7842 -0.4827 -0.3898
vn 0.8685 0.4411 -0.2262
vn -0.0000 0.9026 -0.4304
vn 0.8175 0.4152 -0.3992
vn -0.0000 -0.0000 1.0000
vn -0.9994 -0.0000 0.0353
vn -0.9400 -0.0000 0.3411
vn -0.6898 -0.7239 -0.0151
vn -0.6898 -0.7240 -0.0000
vn -0.7680 0.6404 -0.0000
vn -0.5290 -0.8475 -0.0437
vn -0.9516 -0.0000 0.3073
vn -0.5584 -0.8295 -0.0080
vn -0.8157 -0.5785 0.0075
vn -0.8322 -0.5509 0.0633
vn -0.8570 -0.5051 -0.1023
vn -0.8593 -0.5007 -0.1041
vn -0.8601 -0.4994 -0.1047
vn -0.9128 0.3979 0.0918
vn -0.8845 0.4665 -0.0092
vn -0.9283 0.3700 0.0363
vn -0.9283 0.3701 0.0366
vn -0.9284 0.3699 0.0342
vn -0.7676 0.6401 -0.0336
vn -0.8719 0.4890 -0.0249
vn -1.0000 -0.0069 0.0019
vn -1.0000 -0.0028 0.0075
vn -0.9999 -0.0109 0.0048
vn -0.8375 -0.4957 -0.2299
vn -0.8868 0.4504 -0.1034
vn -0.7842 -0.4827 -0.3898
vn -0.8685 0.4411 -0.2262
vn -0.8175 0.4152 -0.3992
vn 0.5583 -0.8293 -0.0244
vn 0.8912 0.4527 -0.0275
vn 0.8145 -0.5777 0.0532
vn 0.5294 -0.8482 -0.0151
vn 0.8157 -0.5785 0.0075
vn 0.8049 -0.5917 0.0445
vn 0.8601 -0.4994 -0.1047
vn 0.9128 0.3979 0.0918
vn 0.8845 0.4665 -0.0092
vn 0.9283 0.3701 0.0366
vn 0.8710 0.4884 -0.0531
vn 0.8840 0.4662 -0.0348
vn 0.9999 -0.0109 0.0048
vn 0.8375 -0.4957 -0.2299
vn 0.9908 -0.0000 -0.1357
vn 0.1605 -0.9861 -0.0425
vn -0.5583 -0.8293 -0.0244
vn -0.8912 0.4527 -0.0275
vn -0.8145 -0.5777 0.0532
vn -0.5294 -0.8482 -0.0151
vn -0.8338 -0.5520 -0.0123
vn -0.8049 -0.5917 0.0445
vn -0.8561 -0.5067 -0.1016
vn -0.8730 0.4853 0.0482
vn -0.9284 0.3701 0.0341
vn -0.9167 0.3996 0.0084
vn -0.8644 -0.5019 -0.0305
vn -0.8710 0.4884 -0.0531
vn -0.8840 0.4662 -0.0348
vn -1.0000 -0.0000 0.0043
vn 0.1605 0.9861 -0.0425
vn -0.8307 -0.5113 -0.2202
vn -0.0000 -0.9145 0.4045
vn -0.0000 0.9962 0.0872
vn -0.0000 0.9998 -0.0198
vn -0.0000 0.9863 0.1649
vn -0.0000 0.9787 0.2051
vn 0.7919 -0.5822 0.1845
vn -0.0000 -0.9877 0.1565
vn 0.8565 0.4761 0.1995
vn -0.7919 -0.5822 0.1845
vn -0.8565 0.4761 0.1995
vn -0.0000 -0.0000 -1.0000
vn -0.0000 -0.9937 -0.1122
vn 0.9994 -0.0000 -0.0344
vn -0.0000 0.9939 -0.1100
vn -0.9994 -0.0000 -0.0344
vn -0.0000 0.9994 0.0357
vn -0.0000 -0.9990 -0.0443
vn -0.0000 -0.9994 0.0357
vn -0.0000 0.9990 -0.0443
vn -0.9908 -0.0000 -0.1357
vt 0.325253 0.750000
vt 0.358302 0.750000
vt 0.375000 0.750000
vt 0.328002 0.625000
vt 0.312500 0.750000
vt 0.312500 0.625000
vt 0.625000 0.625000
vt 0.500000 0.750000
vt 0.500000 0.625000
vt 0.375000 0.625000
vt 0.718750 0.750000
vt 0.750000 0.750000
vt 0.375000 0.500000
vt 0.355597 0.500000
vt 0.718750 0.625000
vt 0.641549 0.625000
vt 0.625000 0.750000
vt 0.671840 0.500000
vt 0.687500 0.500000
vt 0.281250 0.750000
vt 0.281250 0.625000
vt 0.250000 0.500000
vt 0.281250 0.500000
vt 0.312500 0.500000
vt 0.640658 0.500000
vt 0.625000 0.500000
vt 0.750000 0.500000
vt 0.718750 0.500000
vt 0.500000 0.500000
vt 0.325997 0.500000
vt 0.687500 0.750000
vt 0.671953 0.750000
vt 0.250000 0.750000
vt 0.687500 0.625000
vt 0.250000 0.625000
vt 0.356910 0.500000
vt 0.324028 0.500000
vt 0.358247 0.625000
vt 0.645177 0.750000
vt 0.669705 0.625000
vt 0.639783 0.500000
vt 0.674028 0.500000
vt 0.625000 0.452977
vt 0.625000 0.450971
vt 0.625000 0.483212
vt 0.625000 0.485217
vt 0.750000 0.625000
s 1
usemtl Material.002
f 65/1/1 60/2/1 14/3/1
f 64/4/1 12/5/1 24/6/1
f 18/7/2 6/8/2 20/9/2
f 20/9/2 4/3/2 19/10/2
f 44/11/3 30/12/3 51/11/3
f 2/13/4 62/14/4 25/13/4
f 6/8/5 14/3/5 4/3/5
f 48/15/6 8/12/6 44/11/6
f 68/16/7 3/17/7 18/7/7
f 3/17/5 29/8/5 6/8/5
f 71/18/8 28/19/8 13/19/8
f 24/6/9 45/20/9 47/21/9
f 7/22/1 49/23/1 43/23/1
f 15/24/10 47/21/10 43/23/10
f 67/25/7 18/7/7 1/26/7
f 10/27/7 48/15/7 46/28/7
f 5/29/11 19/10/11 2/13/11
f 1/26/11 20/9/11 5/29/11
f 63/30/1 24/6/1 15/24/1
f 1/26/11 5/29/11 25/26/11
f 5/29/11 2/13/11 25/29/11
f 13/19/12 50/28/12 46/28/12
f 33/5/13 14/3/13 11/5/13
f 17/17/14 34/31/14 11/17/14
f 33/5/15 55/20/15 52/20/15
f 29/8/16 17/17/16 11/8/16
f 14/3/16 29/8/16 11/3/16
f 12/5/17 52/20/17 45/20/17
f 72/32/7 34/31/7 17/17/7
f 55/20/18 38/5/18 53/20/18
f 38/5/19 57/20/19 53/20/19
f 28/24/20 97/23/21 102/24/22
f 26/22/23 97/23/23 49/23/23
f 35/33/24 57/20/24 40/33/24
f 38/31/25 58/11/25 39/31/25
f 34/31/26 56/11/27 11/31/28
f 37/33/29 53/20/29 35/33/29
f 11/31/30 54/11/30 38/31/30
f 45/20/1 31/33/1 9/33/1
f 52/20/31 37/33/31 31/33/31
f 46/28/7 27/27/7 10/27/7
f 46/28/12 23/34/12 13/19/12
f 43/23/1 21/35/1 7/22/1
f 15/24/32 49/23/32 28/24/32
f 47/21/1 9/33/1 21/35/1
f 48/15/33 16/31/33 23/34/33
f 44/11/34 34/31/34 16/31/34
f 76/36/35 80/37/35 77/14/35
f 59/36/1 19/10/1 61/38/1
f 61/38/1 4/3/1 60/2/1
f 63/30/36 28/24/36 66/37/36
f 64/4/37 78/30/37 79/4/37
f 61/38/38 74/2/39 75/38/40
f 68/16/7 72/32/7 69/39/7
f 68/16/41 85/40/41 70/40/41
f 62/41/42 1/26/42 25/26/42
f 67/25/11 82/41/11 84/25/11
f 71/18/7 23/34/7 70/40/7
f 70/40/7 16/31/7 72/32/7
f 78/30/43 75/38/43 79/4/43
f 79/4/1 74/2/1 73/1/1
f 59/36/11 77/14/11 62/14/11
f 61/38/38 76/36/11 59/36/11
f 64/4/37 73/1/37 65/1/37
f 63/30/37 80/37/37 78/30/37
f 84/25/7 85/40/7 86/16/7
f 83/18/44 82/41/44 81/42/44
f 71/18/37 81/42/37 66/42/37
f 67/25/11 86/16/11 68/16/11
f 71/18/37 85/40/37 83/18/37
f 62/41/11 90/41/11 82/41/11
f 82/41/45 93/42/45 81/42/45
f 80/37/46 89/14/46 77/14/46
f 62/14/11 89/14/11 87/14/11
f 66/42/37 93/42/37 88/42/37
f 66/37/37 92/37/37 80/37/37
s 0
f 90/41/37 87/41/37 89/41/37
f 88/42/11 93/42/11 92/42/11
s 1
f 99/27/47 106/28/47 105/27/47
f 98/22/48 103/23/48 97/23/48
f 102/24/49 103/23/49 107/24/49
f 27/27/50 101/28/50 99/27/50
f 28/19/51 101/28/51 50/28/51
f 103/23/52 104/22/52 100/23/52
f 107/24/53 103/23/53 100/24/53
f 102/19/54 106/28/54 101/28/54
f 105/27/55 106/28/55 100/27/55
f 106/28/56 107/19/56 100/28/56
s 0
f 94/43/57 109/44/57 110/44/57
f 96/45/57 111/46/57 108/46/57
s 1
f 162/2/1 167/1/1 129/3/1
f 127/5/1 166/4/1 137/6/1
f 125/8/58 133/7/58 135/9/58
f 123/3/58 135/9/58 134/10/58
f 146/11/3 30/12/3 8/12/3
f 121/13/36 164/14/36 161/36/36
f 129/3/59 125/8/59 123/3/59
f 150/15/6 8/12/6 22/47/6
f 122/17/7 170/16/7 133/7/7
f 140/8/59 122/17/59 125/8/59
f 139/19/8 173/18/8 128/19/8
f 147/20/60 137/6/60 149/21/60
f 151/23/1 7/22/1 145/23/1
f 149/21/61 130/24/61 145/23/61
f 133/7/7 169/25/7 120/26/7
f 150/15/7 10/27/7 148/28/7
f 134/10/37 124/29/37 121/13/37
f 135/9/37 120/26/37 124/29/37
f 137/6/1 165/30/1 130/24/1
f 152/28/62 128/19/62 148/28/62
f 141/5/13 126/5/13 129/3/13
f 132/17/14 126/17/14 142/31/14
f 157/20/63 141/5/63 154/20/63
f 140/8/64 126/8/64 132/17/64
f 129/3/64 126/3/64 140/8/64
f 154/20/65 127/5/65 147/20/65
f 174/32/7 171/39/7 132/17/7
f 157/20/66 143/5/66 126/5/66
f 159/20/67 143/5/67 155/20/67
f 139/24/68 199/23/69 151/23/70
f 199/23/23 26/22/23 151/23/23
f 35/33/24 159/20/24 155/20/24
f 143/31/71 160/11/71 156/11/71
f 142/31/72 158/11/72 153/11/72
f 37/33/29 155/20/29 157/20/29
f 126/31/73 156/11/74 158/11/75
f 31/33/1 147/20/1 9/33/1
f 37/33/31 154/20/31 31/33/31
f 27/27/7 148/28/7 10/27/7
f 136/34/62 148/28/62 128/19/62
f 21/35/1 145/23/1 7/22/1
f 130/24/61 151/23/61 145/23/61
f 9/33/1 149/21/1 21/35/1
f 131/31/76 150/15/76 136/34/76
f 142/31/77 146/11/77 131/31/77
f 182/37/35 178/36/35 179/14/35
f 134/10/1 161/36/1 163/38/1
f 123/3/1 163/38/1 162/2/1
f 139/24/36 165/30/36 168/37/36
f 166/4/11 180/30/11 165/30/11
f 163/38/78 176/2/79 162/2/80
f 174/32/7 170/16/7 171/39/7
f 187/40/41 170/16/41 172/40/41
f 164/41/8 120/26/8 169/25/8
f 169/25/37 184/41/37 164/41/37
f 136/34/7 173/18/7 172/40/7
f 131/31/7 172/40/7 174/32/7
f 177/38/43 180/30/43 181/4/43
f 176/2/1 181/4/1 175/1/1
f 179/14/37 161/36/37 164/14/37
f 178/36/37 163/38/78 161/36/37
f 175/1/11 166/4/11 167/1/11
f 165/30/11 182/37/11 168/37/11
f 187/40/7 186/25/7 188/16/7
f 184/41/44 185/18/44 183/42/44
f 183/42/11 173/18/11 168/42/11
f 188/16/37 169/25/37 170/16/37
f 173/18/11 187/40/11 172/40/11
f 192/41/37 164/41/37 184/41/37
f 195/42/45 184/41/45 183/42/45
f 191/14/46 182/37/46 179/14/46
f 164/14/37 191/14/37 179/14/37
f 168/42/11 195/42/11 183/42/11
f 194/37/11 168/37/11 182/37/11
s 0
f 192/41/11 191/41/11 189/41/11
f 190/42/37 194/42/37 195/42/37
s 1
f 99/27/47 203/28/47 200/28/47
f 202/23/48 98/22/48 199/23/48
f 201/24/81 202/23/81 199/23/81
f 27/27/50 200/28/50 152/28/50
f 200/28/82 139/19/82 152/28/82
f 202/23/52 100/23/52 104/22/52
f 204/24/83 100/24/83 202/23/83
f 203/28/84 201/19/84 200/28/84
f 105/27/55 100/27/55 203/28/55
f 203/28/85 100/28/85 204/19/85
s 0
f 196/43/11 206/44/11 193/43/11
f 198/45/11 208/46/11 197/45/11
s 1
f 33/5/1 12/5/1 65/1/1
f 60/2/1 4/3/1 14/3/1
f 33/5/1 65/1/1 14/3/1
f 64/4/1 65/1/1 12/5/1
f 18/7/2 3/17/2 6/8/2
f 20/9/2 6/8/2 4/3/2
f 44/11/3 8/12/3 30/12/3
f 2/13/36 59/36/36 62/14/36
f 6/8/5 29/8/5 14/3/5
f 48/15/6 22/47/6 8/12/6
f 68/16/7 69/39/7 3/17/7
f 3/17/5 17/17/5 29/8/5
f 71/18/8 66/42/8 28/19/8
f 24/6/86 12/5/86 45/20/86
f 7/22/1 26/22/1 49/23/1
f 15/24/10 24/6/10 47/21/10
f 67/25/7 68/16/7 18/7/7
f 10/27/7 22/47/7 48/15/7
f 5/29/11 20/9/11 19/10/11
f 1/26/11 18/7/11 20/9/11
f 63/30/1 64/4/1 24/6/1
f 13/19/87 28/19/87 50/28/87
f 33/5/88 11/5/88 55/20/88
f 12/5/89 33/5/89 52/20/89
f 17/17/7 3/17/7 69/39/7
f 72/32/7 16/31/7 34/31/7
f 17/17/7 69/39/7 72/32/7
f 55/20/90 11/5/90 38/5/90
f 38/5/91 39/5/91 57/20/91
f 28/24/20 49/23/92 97/23/21
f 26/22/23 98/22/23 97/23/23
f 35/33/24 53/20/24 57/20/24
f 38/31/93 54/11/93 58/11/93
f 34/31/94 51/11/94 56/11/94
f 37/33/29 55/20/29 53/20/29
f 11/31/28 56/11/27 54/11/95
f 45/20/1 52/20/1 31/33/1
f 52/20/31 55/20/31 37/33/31
f 46/28/7 50/28/7 27/27/7
f 46/28/12 48/15/12 23/34/12
f 43/23/1 47/21/1 21/35/1
f 15/24/10 43/23/10 49/23/10
f 47/21/1 45/20/1 9/33/1
f 48/15/96 44/11/96 16/31/96
f 44/11/97 51/11/97 34/31/97
f 76/36/35 78/30/43 80/37/35
f 59/36/1 2/13/1 19/10/1
f 61/38/1 19/10/1 4/3/1
f 63/30/36 15/24/36 28/24/36
f 64/4/37 63/30/37 78/30/37
f 61/38/38 60/2/98 74/2/39
f 68/16/7 70/40/7 72/32/7
f 68/16/41 86/16/41 85/40/41
f 62/41/8 67/25/8 1/26/8
f 67/25/11 62/41/11 82/41/11
f 71/18/7 13/19/7 23/34/7
f 70/40/7 23/34/7 16/31/7
f 78/30/43 76/36/35 75/38/43
f 79/4/1 75/38/1 74/2/1
f 59/36/11 76/36/11 77/14/11
f 61/38/38 75/38/40 76/36/11
f 64/4/37 79/4/37 73/1/37
f 63/30/37 66/37/37 80/37/37
f 84/25/7 83/18/7 85/40/7
f 83/18/44 84/25/44 82/41/44
f 71/18/37 83/18/37 81/42/37
f 67/25/11 84/25/11 86/16/11
f 71/18/37 70/40/37 85/40/37
f 62/41/11 87/41/11 90/41/11
f 82/41/45 90/41/45 93/42/45
f 80/37/46 92/37/46 89/14/46
f 62/14/11 77/14/11 89/14/11
f 66/42/37 81/42/37 93/42/37
f 66/37/37 88/37/37 92/37/37
f 99/27/47 101/28/47 106/28/47
f 98/22/48 104/22/48 103/23/48
f 102/24/99 97/23/99 103/23/99
f 27/27/50 50/28/50 101/28/50
f 28/19/51 102/19/51 101/28/51
f 102/19/54 107/19/54 106/28/54
f 95/45/100 119/45/100 115/46/100
s 0
f 94/43/37 91/43/37 109/44/37
f 96/45/37 95/45/37 111/46/37
s 1
f 167/1/1 127/5/1 141/5/1
f 141/5/1 129/3/1 167/1/1
f 129/3/1 123/3/1 162/2/1
f 127/5/1 167/1/1 166/4/1
f 125/8/58 122/17/58 133/7/58
f 123/3/58 125/8/58 135/9/58
f 146/11/3 153/11/3 30/12/3
f 121/13/101 138/13/101 164/14/101
f 129/3/59 140/8/59 125/8/59
f 150/15/6 146/11/6 8/12/6
f 122/17/7 171/39/7 170/16/7
f 140/8/59 132/17/59 122/17/59
f 139/19/8 168/42/8 173/18/8
f 147/20/102 127/5/102 137/6/102
f 151/23/1 26/22/1 7/22/1
f 149/21/61 137/6/61 130/24/61
f 133/7/7 170/16/7 169/25/7
f 150/15/7 22/47/7 10/27/7
f 134/10/37 135/9/37 124/29/37
f 135/9/37 133/7/37 120/26/37
f 137/6/1 166/4/1 165/30/1
f 152/28/103 139/19/103 128/19/103
f 157/20/104 126/5/104 141/5/104
f 154/20/105 141/5/105 127/5/105
f 171/39/7 122/17/7 132/17/7
f 132/17/7 142/31/7 174/32/7
f 142/31/7 131/31/7 174/32/7
f 157/20/106 155/20/106 143/5/106
f 159/20/107 144/5/107 143/5/107
f 139/24/68 201/24/108 199/23/69
f 199/23/23 98/22/23 26/22/23
f 35/33/24 40/33/24 159/20/24
f 143/31/109 144/31/109 160/11/109
f 142/31/110 126/31/73 158/11/75
f 37/33/29 35/33/29 155/20/29
f 126/31/111 143/31/111 156/11/111
f 31/33/1 154/20/1 147/20/1
f 37/33/31 157/20/31 154/20/31
f 27/27/7 152/28/7 148/28/7
f 136/34/62 150/15/62 148/28/62
f 21/35/1 149/21/1 145/23/1
f 130/24/112 139/24/112 151/23/112
f 9/33/1 147/20/1 149/21/1
f 131/31/113 146/11/113 150/15/113
f 142/31/114 153/11/114 146/11/114
f 182/37/35 180/30/43 178/36/35
f 134/10/1 121/13/1 161/36/1
f 123/3/1 134/10/1 163/38/1
f 139/24/36 130/24/36 165/30/36
f 166/4/11 181/4/11 180/30/11
f 163/38/78 177/38/115 176/2/79
f 174/32/7 172/40/7 170/16/7
f 187/40/41 188/16/41 170/16/41
f 164/41/116 138/26/116 120/26/116
f 169/25/37 186/25/37 184/41/37
f 136/34/7 128/19/7 173/18/7
f 131/31/7 136/34/7 172/40/7
f 177/38/43 178/36/35 180/30/43
f 176/2/1 177/38/1 181/4/1
f 179/14/37 178/36/37 161/36/37
f 178/36/37 177/38/115 163/38/78
f 175/1/11 181/4/11 166/4/11
f 165/30/11 180/30/11 182/37/11
f 187/40/7 185/18/7 186/25/7
f 184/41/44 186/25/44 185/18/44
f 183/42/11 185/18/11 173/18/11
f 188/16/37 186/25/37 169/25/37
f 173/18/11 185/18/11 187/40/11
f 192/41/37 189/41/37 164/41/37
f 195/42/45 192/41/45 184/41/45
f 191/14/46 194/37/46 182/37/46
f 164/14/37 189/14/37 191/14/37
f 168/42/11 190/42/11 195/42/11
f 194/37/11 190/37/11 168/37/11
f 99/27/47 105/27/47 203/28/47
f 202/23/48 104/22/48 98/22/48
f 201/24/117 204/24/117 202/23/117
f 27/27/50 99/27/50 200/28/50
f 200/28/82 201/19/82 139/19/82
f 203/28/84 204/19/84 201/19/84
s 0
f 196/43/57 207/44/57 206/44/57
f 198/45/57 205/46/57 208/46/57
s 1
usemtl Material.001
f 65/1/118 74/2/118 60/2/118
f 176/2/118 167/1/118 162/2/118
f 65/1/118 73/1/118 74/2/118
f 176/2/118 175/1/118 167/1/118
usemtl Material.003
f 36/12/119 54/11/119 56/11/119
f 30/12/120 56/11/120 51/11/120
f 32/12/121 58/11/121 54/11/121
f 156/11/119 36/12/119 158/11/119
f 158/11/120 30/12/120 153/11/120
f 160/11/121 32/12/121 156/11/121
f 36/12/119 32/12/119 54/11/119
f 30/12/120 36/12/120 56/11/120
f 32/12/121 41/12/121 58/11/121
f 156/11/119 32/12/119 36/12/119
f 158/11/120 36/12/120 30/12/120
f 160/11/121 41/12/121 32/12/121
usemtl Material.004
f 58/11/122 41/12/122 42/11/122
f 57/20/123 39/5/123 42/20/123
f 40/33/124 57/20/124 42/33/124
f 39/31/125 58/11/125 42/31/125
f 160/11/122 42/11/122 41/12/122
f 159/20/126 42/20/126 144/5/126
f 40/33/124 42/33/124 159/20/124
f 144/31/127 42/31/127 160/11/127
usemtl Material.005
f 91/43/128 95/45/128 96/45/128
f 197/45/128 193/43/128 198/45/128
f 91/43/128 94/43/128 95/45/128
f 197/45/128 196/43/128 193/43/128
usemtl Material.006
f 92/37/129 108/14/129 89/14/129
f 90/41/130 108/41/130 111/41/130
f 93/42/131 111/41/131 110/42/131
f 93/42/132 109/42/132 92/42/132
f 95/45/100 115/46/100 111/46/100
f 96/45/133 117/43/133 91/43/133
f 116/45/128 113/44/128 117/43/128
f 118/43/128 115/46/128 119/45/128
f 96/45/100 112/46/100 116/45/100
f 109/37/134 112/14/134 108/14/134
f 94/43/135 119/45/135 95/45/135
f 111/41/136 114/42/136 110/42/136
f 94/43/137 114/44/137 118/43/137
f 91/43/137 113/44/137 109/44/137
f 120/26/37 138/26/37 124/29/37
f 124/29/37 138/29/37 121/13/37
f 205/14/129 194/37/129 191/14/129
f 192/41/132 205/41/132 191/41/132
f 195/42/131 208/41/131 192/41/131
f 206/42/130 195/42/130 194/42/130
f 212/46/137 197/45/137 208/46/137
f 214/43/133 198/45/133 193/43/133
f 210/44/128 213/45/128 214/43/128
f 212/46/128 215/43/128 216/45/128
f 198/45/137 209/46/137 205/46/137
f 209/14/134 206/37/134 205/14/134
f 216/45/135 196/43/135 197/45/135
f 211/42/136 208/41/136 207/42/136
f 196/43/100 211/44/100 207/44/100
f 210/44/100 193/43/100 206/44/100
f 92/37/129 109/37/129 108/14/129
f 90/41/130 89/41/130 108/41/130
f 93/42/131 90/41/131 111/41/131
f 93/42/132 110/42/132 109/42/132
f 96/45/133 116/45/133 117/43/133
f 116/45/128 112/46/128 113/44/128
f 118/43/128 114/44/128 115/46/128
f 96/45/100 108/46/100 112/46/100
f 109/37/134 113/37/134 112/14/134
f 94/43/135 118/43/135 119/45/135
f 111/41/136 115/41/136 114/42/136
f 94/43/137 110/44/137 114/44/137
f 91/43/137 117/43/137 113/44/137
f 205/14/129 206/37/129 194/37/129
f 192/41/132 208/41/132 205/41/132
f 195/42/131 207/42/131 208/41/131
f 206/42/130 207/42/130 195/42/130
f 212/46/137 216/45/137 197/45/137
f 214/43/133 213/45/133 198/45/133
f 210/44/128 209/46/128 213/45/128
f 212/46/128 211/44/128 215/43/128
f 198/45/137 213/45/137 209/46/137
f 209/14/134 210/37/134 206/37/134
f 216/45/135 215/43/135 196/43/135
f 211/42/136 212/41/136 208/41/136
f 196/43/100 215/43/100 211/44/100
f 210/44/100 214/43/100 193/43/100
o Cube.004
v 0.279740 -0.021395 0.201170
v 0.279740 0.019102 0.201170
v 0.279740 -0.021395 -0.664319
v 0.279740 0.019102 -0.664319
v 1.076650 -0.020518 -0.677366
v 1.076650 -0.011304 -0.677366
v 1.076650 -0.020518 -0.890031
v 1.076650 -0.011304 -0.890031
v 0.924793 -0.021861 -0.847020
v 0.924793 -0.004335 -0.847020
v 0.279740 -0.001147 0.253894
v 0.279740 -0.001147 -0.724890
v 1.076650 -0.015911 -0.950603
v 1.076650 -0.015911 -0.624641
v 0.924793 -0.013097 -0.907592
v -0.279740 -0.021395 0.201170
v -0.279740 0.019102 0.201170
v -0.279740 -0.021395 -0.664319
v -0.279740 0.019102 -0.664319
v -1.076650 -0.020518 -0.677366
v -1.076650 -0.011304 -0.677366
v -1.076650 -0.020518 -0.890031
v -1.076650 -0.011304 -0.890031
v -0.924793 -0.021861 -0.847020
v -0.924793 -0.004335 -0.847020
v -0.279740 -0.001147 0.253894
v -0.279740 -0.001147 -0.724890
v -1.076650 -0.015911 -0.950603
v -1.076650 -0.015911 -0.624641
v -0.924793 -0.013097 -0.907592
vn -1.0000 -0.0000 -0.0000
vn 0.0159 0.9974 -0.0706
vn -0.0005 0.9954 -0.0954
vn 0.0009 0.9940 -0.1097
vn 1.0000 -0.0000 -0.0000
vn -0.0772 -0.9676 -0.2402
vn -0.1720 -0.9388 -0.2983
vn -0.0751 -0.9698 -0.2322
vn -0.0026 -1.0000 0.0026
vn 0.0062 -1.0000 -0.0008
vn 0.0065 -1.0000 0.0037
vn 0.0355 0.9994 0.0045
vn 0.0363 0.9993 -0.0000
vn 0.0435 0.9990 0.0037
vn 0.0438 0.9990 -0.0007
vn 0.0424 0.9991 0.0031
vn -0.0007 -1.0000 -0.0000
vn 0.5508 0.7851 0.2833
vn 0.2758 0.9351 0.2225
vn 0.2701 0.9371 0.2210
vn 0.0568 0.9859 -0.1576
vn -0.0369 0.9738 -0.2245
vn -0.0393 0.9718 -0.2326
vn 0.2305 -0.9475 0.2215
vn -0.0735 -0.9914 0.1087
vn 0.2374 -0.9455 0.2227
vn -0.0344 -0.9917 -0.1238
vn -0.0508 -0.9876 -0.1484
vn -0.0359 -0.9933 -0.1096
vn 0.0024 0.9923 -0.1239
vn -0.0142 0.9888 -0.1484
vn 0.0198 -0.9872 -0.1580
vn -0.0729 -0.9719 -0.2240
vn 0.0054 -1.0000 0.0031
vn 0.2633 0.9394 0.2196
vn 0.2701 0.9372 0.2209
vn -0.0336 0.9937 0.1065
vn -0.0415 0.9697 -0.2406
vn -0.0393 0.9717 -0.2328
vn -0.1376 0.9440 -0.2998
vn 0.5275 -0.8001 0.2857
vn 0.2375 -0.9455 0.2229
vn 0.2433 -0.9436 0.2244
vn -0.0211 -0.9973 -0.0704
vn -0.0374 -0.9947 -0.0953
vn -0.0159 0.9974 -0.0706
vn -0.0009 0.9940 -0.1097
vn 0.0005 0.9954 -0.0954
vn 0.0772 -0.9676 -0.2402
vn 0.0751 -0.9698 -0.2322
vn 0.1721 -0.9386 -0.2991
vn 0.0015 -1.0000 0.0045
vn -0.0065 -1.0000 0.0037
vn -0.0069 -1.0000 -0.0007
vn -0.0350 0.9994 0.0033
vn -0.0435 0.9990 0.0037
vn -0.0363 0.9993 -0.0000
vn -0.0424 0.9991 0.0031
vn -0.0441 0.9990 -0.0006
vn 0.0007 -1.0000 -0.0000
vn -0.5508 0.7851 0.2833
vn -0.2701 0.9371 0.2210
vn -0.2759 0.9351 0.2224
vn -0.0567 0.9858 -0.1583
vn 0.0393 0.9718 -0.2327
vn 0.0369 0.9738 -0.2245
vn -0.2305 -0.9475 0.2215
vn -0.2374 -0.9455 0.2228
vn 0.0735 -0.9914 0.1087
vn 0.0343 -0.9917 -0.1238
vn 0.0359 -0.9933 -0.1096
vn 0.0508 -0.9876 -0.1484
vn -0.0024 0.9923 -0.1239
vn 0.0142 0.9888 -0.1484
vn -0.0199 -0.9873 -0.1573
vn 0.0729 -0.9719 -0.2240
vn -0.0054 -1.0000 0.0031
vn -0.2631 0.9395 0.2194
vn 0.0336 0.9937 0.1065
vn -0.2700 0.9372 0.2208
vn 0.0415 0.9697 -0.2406
vn 0.1375 0.9443 -0.2991
vn 0.0393 0.9717 -0.2328
vn -0.5274 -0.8001 0.2857
vn -0.2433 -0.9436 0.2244
vn -0.2375 -0.9455 0.2229
vn 0.0211 -0.9973 -0.0704
vn 0.0374 -0.9947 -0.0953
vt 0.500000 0.000000
vt 0.625000 0.250000
vt 0.500000 0.250000
vt 0.500000 0.394330
vt 0.625000 0.500000
vt 0.500000 0.500000
vt 0.500000 0.750000
vt 0.375000 0.394330
vt 0.375000 0.250000
vt 0.269330 0.500000
vt 0.375000 0.750000
vt 0.269330 0.750000
vt 0.730670 0.500000
vt 0.875000 0.500000
vt 0.730670 0.750000
vt 0.625000 0.750000
vt 0.125000 0.500000
vt 0.125000 0.750000
vt 0.625000 0.855670
vt 0.500000 0.855670
vt 0.625000 0.394330
vt 0.375000 0.855670
vt 0.375000 0.500000
vt 0.375000 0.000000
vt 0.625000 0.000000
s 1
usemtl Material.002
f 227/48/138 220/49/138 228/50/138
f 231/51/139 224/52/140 229/53/141
f 224/52/142 230/54/142 229/53/142
f 228/50/143 225/55/144 219/56/145
f 225/57/146 221/58/147 217/59/148
f 226/60/149 220/61/150 218/62/151
f 226/60/149 222/63/152 224/52/153
f 219/64/154 225/57/146 217/65/148
f 230/54/155 218/66/156 227/67/157
f 228/50/158 226/68/159 231/51/160
f 230/54/161 217/69/162 221/58/163
f 223/70/142 230/54/142 221/58/142
f 231/51/164 223/70/165 225/55/166
f 227/48/138 219/56/138 217/71/138
f 227/48/138 218/72/138 220/49/138
f 231/51/167 226/68/141 224/52/168
f 224/52/142 222/63/142 230/54/142
f 228/50/169 231/51/145 225/55/170
f 225/57/146 223/70/171 221/58/147
f 226/60/149 218/62/151 222/63/152
f 230/54/172 222/63/173 218/66/174
f 228/50/175 220/49/176 226/68/177
f 230/54/178 227/67/179 217/69/180
f 223/70/142 229/53/142 230/54/142
f 231/51/181 229/53/166 223/70/182
f 227/48/138 228/50/138 219/56/138
f 242/48/142 243/50/142 235/49/142
f 246/51/183 244/53/184 239/52/185
f 239/52/138 244/53/138 245/54/138
f 243/50/186 234/56/187 240/55/188
f 240/57/189 232/59/190 236/58/191
f 241/60/192 233/62/193 235/61/194
f 241/60/192 239/52/195 237/63/196
f 234/64/197 232/65/190 240/57/189
f 245/54/198 242/67/199 233/66/200
f 243/50/201 246/51/202 241/68/203
f 245/54/204 236/58/205 232/69/206
f 238/70/138 236/58/138 245/54/138
f 246/51/207 240/55/208 238/70/209
f 242/48/142 232/71/142 234/56/142
f 242/48/142 235/49/142 233/72/142
f 246/51/210 239/52/211 241/68/184
f 239/52/138 245/54/138 237/63/138
f 243/50/212 240/55/213 246/51/187
f 240/57/189 236/58/191 238/70/214
f 241/60/192 237/63/196 233/62/193
f 245/54/215 233/66/216 237/63/217
f 243/50/218 241/68/219 235/49/220
f 245/54/221 232/69/222 242/67/223
f 238/70/138 245/54/138 244/53/138
f 246/51/224 238/70/225 244/53/208
f 242/48/142 234/56/142 243/50/142
o Cube.005
v 0.299383 -0.004470 -0.750236
v 0.299383 0.006876 -0.750236
v 0.299383 -0.004470 -1.186519
v 0.299383 0.006876 -1.186519
v 0.759812 -0.006738 -1.125210
v 0.759812 -0.002353 -1.125210
v 0.759812 -0.006738 -1.157345
v 0.759812 -0.002353 -1.157345
v 0.568795 -0.007013 -1.303215
v 0.568795 0.002693 -1.303215
v 0.299383 0.001204 -0.724685
v 0.299383 0.001204 -1.251638
v 0.759812 -0.004545 -1.222463
v 0.759812 -0.004545 -1.099659
v 0.568795 -0.002161 -1.368333
v -0.299383 -0.004470 -0.750236
v -0.299383 0.006876 -0.750236
v -0.299383 -0.004470 -1.186519
v -0.299383 0.006876 -1.186519
v -0.759812 -0.006738 -1.125210
v -0.759812 -0.002353 -1.125210
v -0.759812 -0.006738 -1.157345
v -0.759812 -0.002353 -1.157345
v -0.568795 -0.007013 -1.303215
v -0.568795 0.002693 -1.303215
v -0.299383 0.001204 -0.724685
v -0.299383 0.001204 -1.251638
v -0.759812 -0.004545 -1.222463
v -0.759812 -0.004545 -1.099659
v -0.568795 -0.002161 -1.368333
vn -1.0000 -0.0000 -0.0000
vn 0.0690 0.9949 -0.0742
vn 1.0000 -0.0001 -0.0000
vn 1.0000 -0.0000 -0.0000
vn -0.0452 -0.9960 -0.0774
vn -0.0463 -0.9954 -0.0835
vn -0.0470 -0.9951 -0.0867
vn -0.0008 -1.0000 -0.0013
vn 0.0009 -1.0000 0.0003
vn -0.0058 -1.0000 0.0018
vn 0.0242 0.9997 -0.0014
vn 0.0155 0.9999 -0.0000
vn 0.0192 0.9998 0.0018
vn 0.0259 0.9997 0.0004
vn 0.0264 0.9997 -0.0000
vn -0.0094 -1.0000 -0.0000
vn 0.1854 0.9593 0.2129
vn -0.0203 0.9968 -0.0775
vn -0.0215 0.9963 -0.0836
vn -0.0197 0.9970 -0.0743
vn 0.0646 -0.9943 0.0853
vn 1.0000 0.0001 -0.0000
vn 0.0271 -0.9991 -0.0336
vn 0.0520 0.9981 -0.0336
vn -0.0446 -0.9962 -0.0742
vn 0.0014 -1.0000 -0.0000
vn 0.0892 0.9924 0.0851
vn -0.0221 0.9960 -0.0867
vn 0.1622 -0.9633 0.2139
vn 0.0443 -0.9963 -0.0742
vn -0.0690 0.9949 -0.0742
vn -1.0000 -0.0001 -0.0000
vn 0.0452 -0.9960 -0.0774
vn 0.0470 -0.9951 -0.0867
vn 0.0463 -0.9954 -0.0835
vn 0.0008 -1.0000 -0.0013
vn 0.0058 -1.0000 0.0018
vn -0.0009 -1.0000 0.0003
vn -0.0242 0.9997 -0.0014
vn -0.0192 0.9998 0.0018
vn -0.0155 0.9999 -0.0000
vn -0.0264 0.9997 -0.0000
vn -0.0259 0.9997 0.0004
vn 0.0094 -1.0000 -0.0000
vn -0.1854 0.9593 0.2129
vn 0.0203 0.9968 -0.0775
vn 0.0197 0.9970 -0.0743
vn 0.0215 0.9963 -0.0836
vn -0.0646 -0.9943 0.0853
vn -1.0000 0.0001 -0.0000
vn -0.0271 -0.9991 -0.0336
vn -0.0520 0.9981 -0.0336
vn 0.0446 -0.9962 -0.0742
vn -0.0014 -1.0000 -0.0000
vn -0.0892 0.9924 0.0851
vn 0.0221 0.9960 -0.0867
vn -0.1622 -0.9633 0.2139
vn -0.0443 -0.9963 -0.0742
vt 0.500000 0.000000
vt 0.625000 0.250000
vt 0.500000 0.250000
vt 0.625000 0.394330
vt 0.500000 0.500000
vt 0.500000 0.394330
vt 0.625000 0.500000
vt 0.500000 0.750000
vt 0.375000 0.394330
vt 0.375000 0.250000
vt 0.269330 0.500000
vt 0.375000 0.750000
vt 0.269330 0.750000
vt 0.730670 0.500000
vt 0.875000 0.500000
vt 0.730670 0.750000
vt 0.625000 0.750000
vt 0.125000 0.500000
vt 0.125000 0.750000
vt 0.625000 0.855670
vt 0.500000 0.855670
vt 0.375000 0.855670
vt 0.375000 0.500000
vt 0.375000 0.000000
vt 0.625000 0.000000
s 1
usemtl Material.002
f 257/73/226 250/74/226 258/75/226
f 256/76/227 259/77/227 261/78/227
f 254/79/228 260/80/229 259/77/229
f 258/75/230 255/81/231 249/82/232
f 255/83/233 251/84/234 247/85/235
f 256/86/236 250/87/237 248/88/238
f 256/86/236 252/89/239 254/79/240
f 249/90/241 255/83/233 247/91/235
f 260/80/242 248/92/242 257/93/242
f 258/75/243 256/76/244 261/78/245
f 260/80/246 247/94/246 251/84/246
f 253/95/247 260/80/229 251/84/229
f 255/81/248 259/77/248 253/95/248
f 257/73/226 249/82/226 247/96/226
f 257/73/226 248/97/226 250/74/226
f 256/76/249 254/79/249 259/77/249
f 254/79/228 252/89/229 260/80/229
f 258/75/230 261/78/250 255/81/231
f 255/83/233 253/95/251 251/84/234
f 256/86/236 248/88/238 252/89/239
f 260/80/252 252/89/252 248/92/252
f 258/75/243 250/74/253 256/76/244
f 260/80/254 257/93/254 247/94/254
f 253/95/247 259/77/229 260/80/229
f 255/81/255 261/78/255 259/77/255
f 257/73/226 258/75/226 249/82/226
f 272/73/229 273/75/229 265/74/229
f 271/76/256 276/78/256 274/77/256
f 269/79/257 274/77/226 275/80/226
f 273/75/258 264/82/259 270/81/260
f 270/83/261 262/85/262 266/84/263
f 271/86/264 263/88/265 265/87/266
f 271/86/264 269/79/267 267/89/268
f 264/90/269 262/91/262 270/83/261
f 275/80/270 272/93/270 263/92/270
f 273/75/271 276/78/272 271/76/273
f 275/80/274 266/84/274 262/94/274
f 268/95/275 266/84/226 275/80/226
f 270/81/276 268/95/276 274/77/276
f 272/73/229 262/96/229 264/82/229
f 272/73/229 265/74/229 263/97/229
f 271/76/277 274/77/277 269/79/277
f 269/79/257 275/80/226 267/89/226
f 273/75/258 270/81/260 276/78/278
f 270/83/261 266/84/263 268/95/279
f 271/86/264 267/89/268 263/88/265
f 275/80/280 263/92/280 267/89/280
f 273/75/271 271/76/273 265/74/281
f 275/80/282 262/94/282 272/93/282
f 268/95/275 275/80/226 274/77/226
f 270/81/283 274/77/283 276/78/283
f 272/73/229 264/82/229 273/75/229
o Cube.006
v 0.295078 0.002726 -0.582805
v 0.276243 0.002669 -0.582805
v 0.295078 0.002726 -1.032889
v 0.276243 0.002668 -1.032882
v 0.286645 0.484756 -0.991323
v 0.282360 0.484742 -0.991323
v 0.286645 0.484756 -1.095364
v 0.282360 0.484742 -1.095362
v 0.288798 0.302708 -1.071769
v 0.280647 0.302683 -1.071765
v 0.285661 0.002698 -0.558289
v 0.285661 0.002698 -1.071640
v 0.284503 0.484749 -1.134117
v 0.284503 0.484749 -0.966806
v 0.284723 0.302696 -1.110522
v -0.295078 0.002726 -0.582805
v -0.276243 0.002669 -0.582805
v -0.295078 0.002726 -1.032889
v -0.276243 0.002668 -1.032882
v -0.286645 0.484756 -0.991323
v -0.282360 0.484742 -0.991323
v -0.286645 0.484756 -1.095364
v -0.282360 0.484742 -1.095362
v -0.288798 0.302708 -1.071769
v -0.280647 0.302683 -1.071765
v -0.285661 0.002698 -0.558289
v -0.285661 0.002698 -1.071640
v -0.284503 0.484749 -1.134117
v -0.284503 0.484749 -0.966806
v -0.284723 0.302696 -1.110522
vn 0.0031 -1.0000 -0.0000
vn 0.0032 -1.0000 -0.0000
vn -0.9986 0.0099 -0.0516
vn -0.9973 -0.0067 -0.0738
vn -0.9968 -0.0063 -0.0799
vn -0.0029 1.0000 -0.0000
vn -0.0032 1.0000 -0.0000
vn 0.9834 -0.0104 -0.1812
vn 0.9694 -0.0677 -0.2358
vn 0.9851 -0.0104 -0.1715
vn 0.9998 0.0176 0.0012
vn 0.9999 0.0126 -0.0048
vn 0.9999 0.0127 -0.0054
vn -0.9999 0.0127 0.0007
vn -0.9999 0.0147 -0.0000
vn -0.9999 0.0100 -0.0032
vn -0.9999 0.0100 -0.0025
vn -0.9999 0.0104 -0.0022
vn 0.9998 0.0209 -0.0000
vn -0.8276 0.4500 0.3355
vn -0.9530 0.2007 0.2270
vn -0.9546 0.1955 0.2249
vn -0.9937 0.0395 -0.1044
vn -0.9867 -0.0166 -0.1616
vn -0.9851 -0.0165 -0.1715
vn 0.9554 0.1941 0.2228
vn 0.9950 -0.0656 0.0753
vn 0.9536 0.2001 0.2249
vn 0.9963 -0.0034 -0.0861
vn 0.9939 -0.0202 -0.1082
vn 0.9968 -0.0039 -0.0800
vn -0.0031 -1.0000 -0.0000
vn -0.0032 -1.0000 -0.0000
vn 0.9963 -0.0058 -0.0861
vn 0.9939 -0.0226 -0.1082
vn 0.9968 -0.0063 -0.0800
vn 0.0032 1.0000 -0.0000
vn 0.0029 1.0000 -0.0000
vn -0.9695 -0.0677 -0.2357
vn -0.9834 -0.0102 -0.1812
vn -0.9851 -0.0104 -0.1715
vn -0.9998 0.0176 0.0012
vn -0.9999 0.0126 -0.0048
vn -0.9999 0.0135 -0.0037
vn 0.9999 0.0127 0.0007
vn 0.9999 0.0100 -0.0032
vn 0.9999 0.0147 -0.0000
vn 0.9999 0.0099 -0.0025
vn 0.9999 0.0104 -0.0022
vn -0.9998 0.0209 -0.0000
vn -0.9999 0.0127 -0.0054
vn 0.9563 0.1895 0.2228
vn 0.9947 -0.0704 0.0753
vn 0.9546 0.1955 0.2248
vn 0.9833 -0.0165 -0.1811
vn 0.9690 -0.0738 -0.2357
vn 0.9850 -0.0165 -0.1715
vn -0.9950 -0.0656 0.0753
vn -0.9554 0.1941 0.2228
vn -0.9536 0.2001 0.2249
vn -0.9939 -0.0202 -0.1082
vn -0.9963 -0.0034 -0.0861
vn -0.9968 -0.0039 -0.0800
vn -0.9963 -0.0058 -0.0861
vn -0.9968 -0.0063 -0.0800
vn -0.9939 -0.0226 -0.1082
vn 0.9935 0.0457 -0.1042
vn 0.9868 -0.0104 -0.1616
vn 0.9999 0.0135 -0.0037
vn -0.9563 0.1895 0.2227
vn -0.9546 0.1955 0.2248
vn -0.9947 -0.0704 0.0753
vn -0.9833 -0.0164 -0.1811
vn -0.9850 -0.0165 -0.1715
vn -0.9690 -0.0738 -0.2357
vn 0.8253 0.4541 0.3356
vn 0.9536 0.2002 0.2250
vn 0.9519 0.2054 0.2271
vn 0.9986 0.0124 -0.0516
vn 0.9968 -0.0039 -0.0799
vn 0.9973 -0.0043 -0.0738
vn 0.9986 0.0099 -0.0516
vn 0.9968 -0.0063 -0.0799
vn 0.9973 -0.0067 -0.0738
vn -0.9868 -0.0104 -0.1616
vn -0.9935 0.0457 -0.1044
vn 0.8276 0.4500 0.3355
vn 0.9546 0.1955 0.2249
vn 0.9530 0.2007 0.2270
vn 0.9938 0.0395 -0.1042
vn 0.9851 -0.0165 -0.1715
vn 0.9867 -0.0166 -0.1616
vn -0.9520 0.2054 0.2271
vn -0.9536 0.2002 0.2250
vn -0.8253 0.4541 0.3356
vn -0.9973 -0.0043 -0.0738
vn -0.9968 -0.0039 -0.0799
vn -0.9986 0.0124 -0.0516
vt 0.500000 0.000000
vt 0.625000 0.250000
vt 0.500000 0.250000
vt 0.500000 0.394330
vt 0.625000 0.500000
vt 0.500000 0.500000
vt 0.500000 0.750000
vt 0.375000 0.394330
vt 0.375000 0.250000
vt 0.269330 0.500000
vt 0.375000 0.750000
vt 0.269330 0.750000
vt 0.730670 0.500000
vt 0.875000 0.500000
vt 0.730670 0.750000
vt 0.625000 0.750000
vt 0.125000 0.500000
vt 0.125000 0.750000
vt 0.625000 0.855670
vt 0.500000 0.855670
vt 0.625000 0.394330
vt 0.375000 0.855670
vt 0.375000 0.500000
vt 0.375000 0.000000
vt 0.625000 0.000000
s 1
usemtl Material.002
f 287/98/284 280/99/285 288/100/284
f 291/101/286 284/102/287 289/103/288
f 284/102/289 290/104/290 289/103/290
f 288/100/291 285/105/292 279/106/293
f 285/107/294 281/108/295 277/109/296
f 286/110/297 280/111/298 278/112/299
f 286/110/297 282/113/300 284/102/301
f 279/114/302 285/107/294 277/115/296
f 290/104/303 278/116/304 287/117/305
f 288/100/306 286/118/307 291/101/308
f 290/104/309 277/119/310 281/108/311
f 283/120/290 290/104/290 281/108/290
f 291/101/312 283/120/313 285/105/314
f 287/98/284 279/106/284 277/121/284
f 302/98/315 295/99/316 293/122/315
f 306/101/317 299/102/318 301/118/319
f 305/104/320 299/102/321 304/103/320
f 300/105/322 303/100/323 294/106/324
f 300/107/325 296/108/326 298/120/327
f 301/110/328 293/112/329 295/111/330
f 297/113/331 301/110/328 299/102/332
f 294/114/333 292/115/334 300/107/325
f 305/104/335 293/116/336 297/113/337
f 303/100/338 301/118/339 295/99/340
f 292/119/341 305/104/342 296/108/343
f 298/120/320 305/104/320 304/103/320
f 298/120/344 306/101/345 300/105/346
f 294/106/315 302/98/315 292/121/315
f 287/98/284 278/122/284 280/99/285
f 291/101/347 286/118/348 284/102/349
f 284/102/289 282/113/290 290/104/290
f 288/100/350 291/101/293 285/105/351
f 285/107/294 283/120/352 281/108/295
f 286/110/297 278/112/299 282/113/300
f 290/104/353 282/113/354 278/116/355
f 288/100/356 280/99/357 286/118/358
f 290/104/359 287/117/360 277/119/361
f 283/120/290 289/103/290 290/104/290
f 291/101/362 289/103/363 283/120/364
f 287/98/284 288/100/284 279/106/284
f 302/98/315 303/100/315 295/99/316
f 306/101/365 304/103/366 299/102/367
f 305/104/320 297/113/320 299/102/321
f 300/105/368 306/101/324 303/100/369
f 300/107/325 292/109/334 296/108/326
f 297/113/331 293/112/329 301/110/328
f 305/104/370 302/117/371 293/116/372
f 303/100/373 306/101/374 301/118/375
f 292/119/376 302/117/377 305/104/378
f 298/120/320 296/108/320 305/104/320
f 298/120/379 304/103/380 306/101/381
f 294/106/315 303/100/315 302/98/315
